<svg width="652" height="2152" viewBox="0 0 652 2152" fill="none" xmlns="http://www.w3.org/2000/svg">
<g id="Map">
<g clip-path="url(#clip0_8_2)">
<path d="M1 1H651V2151H1V1Z" fill="#FFF4EC"/>
<g id="Paths">
<path id="Pasture Path" d="M541 1531V1491L517 1471H451V1371L481 1321V1061" stroke="#CCB7A9" stroke-width="10" stroke-linecap="round" stroke-linejoin="round"/>
<path id="Parrots Path" d="M231 1491L191 1461H71" stroke="#CCB7A9" stroke-width="10" stroke-linecap="round" stroke-linejoin="round"/>
<path id="Core Path" d="M481 1111H531M531 1111V1131M531 1111H571V1071M571 1071L586 1061M571 1071L551 1061H481" stroke="#CCB7A9" stroke-width="10" stroke-linecap="round" stroke-linejoin="round"/>
<path id="Barn Path" d="M531 1061V951M531 951H461M531 951V921L481 881H371" stroke="#CCB7A9" stroke-width="10" stroke-linecap="round" stroke-linejoin="round"/>
<path id="Well Path" d="M421 1211L291 1111" stroke="#CCB7A9" stroke-width="10" stroke-linecap="round" stroke-linejoin="round"/>
<path id="Fox Path" d="M211 11H291" stroke="#CCB7A9" stroke-width="10" stroke-linecap="round" stroke-linejoin="round"/>
<path id="Fork Path" d="M291 731H111L61 681" stroke="#CCB7A9" stroke-width="10" stroke-linecap="round" stroke-linejoin="round"/>
<rect id="Garden" x="506.5" y="1076.5" width="39" height="19" rx="9.5" fill="#E5DCD5" stroke="#80726A"/>
</g>
<g id="Roads">
<path id="Entrance Road" d="M421 2151V2131L151 1721V1511L451 1171" stroke="#80726A" stroke-width="20" stroke-linecap="round" stroke-linejoin="round"/>
<path id="Secondary Road" d="M291 1351V971L391 851L291 731V1" stroke="#80726A" stroke-width="20" stroke-linecap="round" stroke-linejoin="round"/>
</g>
<g id="Trees">
<path id="Trees_2" d="M391 2151H1V1591H111V1731L391 2151Z" fill="#A6B2A0"/>
<path id="Trees_3" d="M181 1401H1V1H151V191H261V381H151V501H261V696H125.5L76 646L36 656L26 696L96 766H261L331 851L241 961V1336L181 1401Z" fill="#A6B2A0"/>
<path id="Trees_4" d="M321 551V1H651V991H561V911L491 851H441L321 711V671H431V551H321Z" fill="#A6B2A0"/>
</g>
<g id="Items">
<g id="Foxes (16)">
<g id="Foxes [outline]">
<mask id="path-16-inside-1_8_2" fill="white">
<path fill-rule="evenodd" clip-rule="evenodd" d="M201 31H221V51H261V171H201V91H161V51H201V31Z"/>
</mask>
<path fill-rule="evenodd" clip-rule="evenodd" d="M201 31H221V51H261V171H201V91H161V51H201V31Z" fill="#D9D9D9"/>
<path d="M221 31H222V30H221V31ZM201 31V30H200V31H201ZM221 51H220V52H221V51ZM261 51H262V50H261V51ZM261 171V172H262V171H261ZM201 171H200V172H201V171ZM201 91H202V90H201V91ZM161 91H160V92H161V91ZM161 51V50H160V51H161ZM201 51V52H202V51H201ZM221 30H201V32H221V30ZM222 51V31H220V51H222ZM261 50H221V52H261V50ZM262 171V51H260V171H262ZM201 172H261V170H201V172ZM200 91V171H202V91H200ZM201 90H161V92H201V90ZM162 91V51H160V91H162ZM161 52H201V50H161V52ZM200 31V51H202V31H200Z" fill="#8C8C8C" mask="url(#path-16-inside-1_8_2)"/>
</g>
<g id="Label">
<g id="Label_2">
<circle id="Background" cx="231" cy="111" r="8" fill="white" stroke="black"/>
<path id="Number" d="M226.336 113.4H227.726V109.45L227.876 108.77L227.396 109.36L226.506 109.97L225.956 109.22L228.236 107.38H228.966V113.4H230.326V114.5H226.336V113.4ZM236.2 112.33C236.2 112.657 236.143 112.96 236.03 113.24C235.923 113.52 235.77 113.763 235.57 113.97C235.37 114.177 235.127 114.34 234.84 114.46C234.56 114.58 234.25 114.64 233.91 114.64C233.563 114.64 233.243 114.587 232.95 114.48C232.663 114.367 232.413 114.2 232.2 113.98C231.987 113.76 231.82 113.483 231.7 113.15C231.58 112.817 231.52 112.43 231.52 111.99C231.52 111.33 231.613 110.733 231.8 110.2C231.993 109.667 232.25 109.203 232.57 108.81C232.897 108.41 233.273 108.09 233.7 107.85C234.133 107.603 234.59 107.44 235.07 107.36L235.36 108.39C235.027 108.443 234.72 108.547 234.44 108.7C234.16 108.853 233.91 109.037 233.69 109.25C233.477 109.463 233.293 109.703 233.14 109.97C232.993 110.23 232.89 110.5 232.83 110.78C232.963 110.613 233.137 110.473 233.35 110.36C233.563 110.24 233.83 110.18 234.15 110.18C234.45 110.18 234.727 110.227 234.98 110.32C235.233 110.413 235.45 110.553 235.63 110.74C235.81 110.92 235.95 111.143 236.05 111.41C236.15 111.677 236.2 111.983 236.2 112.33ZM234.94 112.4C234.94 111.653 234.573 111.28 233.84 111.28C233.573 111.28 233.347 111.34 233.16 111.46C232.98 111.58 232.853 111.72 232.78 111.88C232.767 111.953 232.76 112.017 232.76 112.07C232.76 112.123 232.76 112.177 232.76 112.23C232.76 112.39 232.783 112.55 232.83 112.71C232.877 112.863 232.943 113.003 233.03 113.13C233.123 113.25 233.24 113.35 233.38 113.43C233.52 113.503 233.687 113.54 233.88 113.54C234.193 113.54 234.447 113.433 234.64 113.22C234.84 113.007 234.94 112.733 234.94 112.4Z" fill="black"/>
</g>
</g>
</g>
<g id="Orion (15)">
<g id="Orion [outline]">
<mask id="path-20-inside-2_8_2" fill="white">
<path fill-rule="evenodd" clip-rule="evenodd" d="M251 401H171V481H251V451H271V431H251V401Z"/>
</mask>
<path fill-rule="evenodd" clip-rule="evenodd" d="M251 401H171V481H251V451H271V431H251V401Z" fill="#D9D9D9"/>
<path d="M171 401V400H170V401H171ZM251 401H252V400H251V401ZM171 481H170V482H171V481ZM251 481V482H252V481H251ZM251 451V450H250V451H251ZM271 451V452H272V451H271ZM271 431H272V430H271V431ZM251 431H250V432H251V431ZM171 402H251V400H171V402ZM172 481V401H170V481H172ZM251 480H171V482H251V480ZM250 451V481H252V451H250ZM271 450H251V452H271V450ZM270 431V451H272V431H270ZM251 432H271V430H251V432ZM250 401V431H252V401H250Z" fill="#8C8C8C" mask="url(#path-20-inside-2_8_2)"/>
</g>
<g id="Label_3">
<g id="Label_4">
<circle id="Background_2" cx="211" cy="441" r="8" fill="white" stroke="black"/>
<path id="Number_2" d="M206.336 443.4H207.726V439.45L207.876 438.77L207.396 439.36L206.506 439.97L205.956 439.22L208.236 437.38H208.966V443.4H210.326V444.5H206.336V443.4ZM213.2 443.49C213.64 443.49 213.977 443.383 214.21 443.17C214.443 442.957 214.56 442.663 214.56 442.29C214.56 441.89 214.423 441.597 214.15 441.41C213.877 441.223 213.487 441.13 212.98 441.13L212.19 441.16V437.5H215.63V438.72H213.31V440.07L213.72 440.03C214.047 440.043 214.34 440.103 214.6 440.21C214.867 440.317 215.093 440.467 215.28 440.66C215.467 440.847 215.61 441.077 215.71 441.35C215.81 441.617 215.86 441.917 215.86 442.25C215.86 442.643 215.793 442.99 215.66 443.29C215.527 443.59 215.34 443.84 215.1 444.04C214.867 444.24 214.59 444.39 214.27 444.49C213.95 444.59 213.6 444.64 213.22 444.64C212.92 444.64 212.633 444.613 212.36 444.56C212.093 444.513 211.867 444.447 211.68 444.36L212.03 443.28C212.183 443.347 212.35 443.4 212.53 443.44C212.717 443.473 212.94 443.49 213.2 443.49Z" fill="black"/>
</g>
</g>
</g>
<g id="Crows (14)">
<g id="Crows [outline]">
<mask id="path-24-inside-3_8_2" fill="white">
<path fill-rule="evenodd" clip-rule="evenodd" d="M411 571H331L331 601H311V621H331L331 651H411V571Z"/>
</mask>
<path fill-rule="evenodd" clip-rule="evenodd" d="M411 571H331L331 601H311V621H331L331 651H411V571Z" fill="#D9D9D9"/>
<path d="M331 571V570H330V571L331 571ZM411 571H412V570H411V571ZM331 601V602H332V601H331ZM311 601V600H310V601H311ZM311 621H310V622H311V621ZM331 621H332V620H331V621ZM331 651H330V652H331V651ZM411 651V652H412V651H411ZM331 572H411V570H331V572ZM332 601L332 571L330 571L330 601H332ZM311 602H331V600H311V602ZM312 621V601H310V621H312ZM331 620H311V622H331V620ZM332 651L332 621H330L330 651H332ZM411 650H331V652H411V650ZM410 571V651H412V571H410Z" fill="#8C8C8C" mask="url(#path-24-inside-3_8_2)"/>
</g>
<g id="Label_5">
<g id="Label_6">
<circle id="Background_3" cx="371" cy="611" r="8" fill="white" stroke="black"/>
<path id="Number_3" d="M366.336 613.4H367.726V609.45L367.876 608.77L367.396 609.36L366.506 609.97L365.956 609.22L368.236 607.38H368.966V613.4H370.326V614.5H366.336V613.4ZM376.53 612.55H375.43V614.5H374.22V612.55H371.19V611.81L374.36 607.45H375.43V611.51H376.53V612.55ZM374.22 609.98L374.31 609.14H374.27L373.93 609.86L372.89 611.21L372.39 611.59L373.03 611.51H374.22V609.98Z" fill="black"/>
</g>
</g>
</g>
<g id="Barn (13)">
<g id="Barn [outline]">
<mask id="path-28-inside-4_8_2" fill="white">
<path fill-rule="evenodd" clip-rule="evenodd" d="M461 921H361V981H411V1001H451V981H461V921Z"/>
</mask>
<path fill-rule="evenodd" clip-rule="evenodd" d="M461 921H361V981H411V1001H451V981H461V921Z" fill="#D9D9D9"/>
<path d="M361 921V920H360V921H361ZM461 921H462V920H461V921ZM361 981H360V982H361V981ZM411 981H412V980H411V981ZM411 1001H410V1002H411V1001ZM451 1001V1002H452V1001H451ZM451 981V980H450V981H451ZM461 981V982H462V981H461ZM361 922H461V920H361V922ZM362 981V921H360V981H362ZM411 980H361V982H411V980ZM412 1001V981H410V1001H412ZM451 1000H411V1002H451V1000ZM450 981V1001H452V981H450ZM461 980H451V982H461V980ZM460 921V981H462V921H460Z" fill="#8C8C8C" mask="url(#path-28-inside-4_8_2)"/>
</g>
<g id="Label_7">
<g id="Label_8">
<circle id="Background_4" cx="411" cy="951" r="8" fill="white" stroke="black"/>
<path id="Number_4" d="M406.336 953.4H407.726V949.45L407.876 948.77L407.396 949.36L406.506 949.97L405.956 949.22L408.236 947.38H408.966V953.4H410.326V954.5H406.336V953.4ZM413.41 953.54C413.823 953.54 414.137 953.43 414.35 953.21C414.57 952.99 414.68 952.723 414.68 952.41C414.68 952.03 414.567 951.75 414.34 951.57C414.113 951.39 413.757 951.3 413.27 951.3H412.55V950.61L413.76 948.96L414.33 948.51L413.54 948.6H411.86V947.5H415.68V948.21L414.27 950.1L413.83 950.37V950.42L414.25 950.36C414.483 950.38 414.703 950.433 414.91 950.52C415.123 950.607 415.307 950.733 415.46 950.9C415.62 951.06 415.747 951.26 415.84 951.5C415.933 951.74 415.98 952.017 415.98 952.33C415.98 952.723 415.913 953.063 415.78 953.35C415.653 953.637 415.473 953.877 415.24 954.07C415.013 954.263 414.747 954.407 414.44 954.5C414.133 954.593 413.803 954.64 413.45 954.64C413.157 954.64 412.853 954.613 412.54 954.56C412.227 954.507 411.973 954.43 411.78 954.33L412.13 953.25C412.303 953.337 412.493 953.407 412.7 953.46C412.913 953.513 413.15 953.54 413.41 953.54Z" fill="black"/>
</g>
</g>
</g>
<g id="Nutrition House (12)">
<rect id="Nutrition House [outline]" x="561.696" y="1031.12" width="39" height="79" transform="rotate(-35 561.696 1031.12)" fill="#D9D9D9" stroke="#8C8C8C"/>
<g id="Label_9">
<g id="Label_10">
<circle id="Background_5" cx="600" cy="1052" r="8" fill="white" stroke="black"/>
<path id="Number_5" d="M595.336 1054.4L596.726 1054.4L596.726 1050.45L596.876 1049.77L596.396 1050.36L595.506 1050.97L594.956 1050.22L597.236 1048.38L597.966 1048.38L597.966 1054.4L599.326 1054.4L599.326 1055.5L595.336 1055.5L595.336 1054.4ZM604.75 1050.21C604.75 1050.55 604.687 1050.89 604.56 1051.24C604.44 1051.59 604.283 1051.93 604.09 1052.26C603.903 1052.59 603.693 1052.92 603.46 1053.23C603.233 1053.54 603.01 1053.82 602.79 1054.08L602.26 1054.49L602.26 1054.54L602.98 1054.4L604.9 1054.4L604.9 1055.5L600.69 1055.5L600.69 1054.83C600.85 1054.66 601.03 1054.47 601.23 1054.25C601.43 1054.02 601.63 1053.79 601.83 1053.54C602.037 1053.29 602.237 1053.03 602.43 1052.76C602.623 1052.49 602.797 1052.23 602.95 1051.96C603.103 1051.69 603.223 1051.42 603.31 1051.17C603.403 1050.92 603.45 1050.68 603.45 1050.45C603.45 1050.18 603.37 1049.95 603.21 1049.78C603.057 1049.6 602.81 1049.51 602.47 1049.51C602.257 1049.51 602.037 1049.56 601.81 1049.65C601.59 1049.74 601.403 1049.85 601.25 1049.99L600.73 1049.07C600.99 1048.86 601.283 1048.69 601.61 1048.56C601.943 1048.43 602.333 1048.36 602.78 1048.36C603.067 1048.36 603.33 1048.4 603.57 1048.48C603.81 1048.56 604.017 1048.68 604.19 1048.83C604.363 1048.98 604.5 1049.18 604.6 1049.41C604.7 1049.64 604.75 1049.9 604.75 1050.21Z" fill="black"/>
</g>
</g>
</g>
<g id="The Studio (10,11)">
<g id="Base">
<rect id="The Studio" x="467.683" y="1007.46" width="39" height="79" transform="rotate(35 467.683 1007.46)" fill="#D9D9D9" stroke="#8C8C8C"/>
<g id="Critter Cave" opacity="0.5">
<mask id="path-36-inside-5_8_2" fill="white">
<path d="M438.881 1047.72L471.647 1070.66L454.44 1095.24L421.674 1072.29L438.881 1047.72Z"/>
</mask>
<path d="M438.308 1048.54L471.074 1071.48L472.221 1069.84L439.455 1046.9L438.308 1048.54Z" fill="#8C8C8C" mask="url(#path-36-inside-5_8_2)"/>
</g>
</g>
<g id="The Studio (11)">
<g id="The Studio [outline]" style="mix-blend-mode:lighten">
<path d="M467.683 1007.46L499.63 1029.83L471.525 1069.97L439.578 1047.6L467.683 1007.46Z" fill="black"/>
<path d="M467.683 1007.46L499.63 1029.83L471.525 1069.97L439.578 1047.6L467.683 1007.46Z" stroke="black"/>
</g>
<g id="Label_11">
<g id="Label_12">
<circle id="Background_6" cx="469.604" cy="1038.71" r="8" fill="white" stroke="black"/>
<path id="Number_6" d="M464.94 1041.11L466.33 1041.11L466.33 1037.16L466.48 1036.48L466 1037.07L465.11 1037.68L464.56 1036.93L466.84 1035.09L467.57 1035.09L467.57 1041.11L468.93 1041.11L468.93 1042.21L464.94 1042.21L464.94 1041.11ZM470.614 1041.11L472.004 1041.11L472.004 1037.16L472.154 1036.48L471.674 1037.07L470.784 1037.68L470.234 1036.93L472.514 1035.09L473.244 1035.09L473.244 1041.11L474.604 1041.11L474.604 1042.21L470.614 1042.21L470.614 1041.11Z" fill="black"/>
</g>
</g>
</g>
<g id="Critter Cave (10)">
<g id="Critter Cave [outline]" style="mix-blend-mode:lighten">
<rect x="439.004" y="1048.42" width="39" height="29" transform="rotate(35 439.004 1048.42)" fill="black"/>
<rect x="439.004" y="1048.42" width="39" height="29" transform="rotate(35 439.004 1048.42)" stroke="black"/>
</g>
<g id="Label_13">
<g id="Label_14">
<circle id="Background_7" cx="446.661" cy="1071.48" r="8" fill="white" stroke="black"/>
<path id="Number_7" d="M441.997 1073.88L443.387 1073.88L443.387 1069.93L443.537 1069.25L443.057 1069.84L442.167 1070.45L441.617 1069.7L443.897 1067.86L444.627 1067.86L444.627 1073.88L445.987 1073.88L445.987 1074.98L441.997 1074.98L441.997 1073.88ZM447.061 1071.47C447.061 1070.24 447.271 1069.33 447.691 1068.74C448.111 1068.14 448.714 1067.84 449.501 1067.84C450.341 1067.84 450.957 1068.14 451.351 1068.73C451.744 1069.32 451.941 1070.23 451.941 1071.47C451.941 1072.7 451.727 1073.62 451.301 1074.22C450.881 1074.82 450.277 1075.12 449.491 1075.12C448.657 1075.12 448.044 1074.81 447.651 1074.18C447.257 1073.55 447.061 1072.64 447.061 1071.47ZM448.361 1071.47C448.361 1072.28 448.447 1072.91 448.621 1073.36C448.801 1073.8 449.094 1074.02 449.501 1074.02C449.894 1074.02 450.181 1073.82 450.361 1073.41C450.547 1073 450.641 1072.36 450.641 1071.47C450.641 1070.66 450.554 1070.04 450.381 1069.6C450.207 1069.16 449.911 1068.94 449.491 1068.94C449.091 1068.94 448.801 1069.15 448.621 1069.56C448.447 1069.97 448.361 1070.61 448.361 1071.47Z" fill="black"/>
</g>
</g>
</g>
</g>
<g id="Well (9)">
<rect id="Well [outline]" x="351.123" y="1111.7" width="19" height="19" transform="rotate(35 351.123 1111.7)" fill="#D9D9D9" stroke="#8C8C8C"/>
<g id="Label_15">
<g id="Label_16">
<circle id="Background_8" cx="353" cy="1125" r="8" fill="white" stroke="black"/>
<path id="Number_8" d="M350.613 1123.69C350.613 1123.35 350.663 1123.04 350.763 1122.75C350.87 1122.46 351.02 1122.22 351.213 1122.02C351.413 1121.81 351.653 1121.65 351.933 1121.54C352.22 1121.42 352.546 1121.36 352.913 1121.36C353.666 1121.36 354.256 1121.59 354.683 1122.04C355.116 1122.49 355.333 1123.14 355.333 1124C355.333 1124.77 355.233 1125.44 355.033 1126.01C354.84 1126.57 354.576 1127.04 354.243 1127.42C353.916 1127.79 353.536 1128.08 353.103 1128.28C352.67 1128.48 352.213 1128.6 351.733 1128.64L351.453 1127.62C351.82 1127.57 352.146 1127.48 352.433 1127.35C352.72 1127.22 352.966 1127.05 353.173 1126.86C353.38 1126.66 353.546 1126.44 353.673 1126.19C353.806 1125.94 353.9 1125.67 353.953 1125.38C353.793 1125.55 353.62 1125.67 353.433 1125.74C353.253 1125.81 353.01 1125.84 352.703 1125.84C352.45 1125.84 352.196 1125.8 351.943 1125.71C351.696 1125.62 351.473 1125.49 351.273 1125.32C351.08 1125.14 350.92 1124.92 350.793 1124.65C350.673 1124.38 350.613 1124.06 350.613 1123.69ZM351.873 1123.62C351.873 1124 351.98 1124.29 352.193 1124.48C352.406 1124.67 352.673 1124.77 352.993 1124.77C353.266 1124.77 353.49 1124.73 353.663 1124.64C353.836 1124.55 353.97 1124.45 354.063 1124.32C354.083 1124.18 354.093 1124.05 354.093 1123.92C354.093 1123.73 354.07 1123.55 354.023 1123.37C353.976 1123.19 353.903 1123.03 353.803 1122.89C353.71 1122.75 353.586 1122.64 353.433 1122.56C353.286 1122.47 353.11 1122.43 352.903 1122.43C352.576 1122.43 352.323 1122.54 352.143 1122.75C351.963 1122.96 351.873 1123.25 351.873 1123.62Z" fill="black"/>
</g>
</g>
</g>
<g id="Ella&#39;s House (6,7,8)">
<g id="Base_2">
<g id="House">
<mask id="path-47-inside-6_8_2" fill="white">
<path fill-rule="evenodd" clip-rule="evenodd" d="M551 1131H511V1151H491V1211H571V1151H551V1131Z"/>
</mask>
<path fill-rule="evenodd" clip-rule="evenodd" d="M551 1131H511V1151H491V1211H571V1151H551V1131Z" fill="#D9D9D9"/>
<path d="M511 1131V1130H510V1131H511ZM551 1131H552V1130H551V1131ZM511 1151V1152H512V1151H511ZM491 1151V1150H490V1151H491ZM491 1211H490V1212H491V1211ZM571 1211V1212H572V1211H571ZM571 1151H572V1150H571V1151ZM551 1151H550V1152H551V1151ZM511 1132H551V1130H511V1132ZM512 1151V1131H510V1151H512ZM491 1152H511V1150H491V1152ZM492 1211V1151H490V1211H492ZM571 1210H491V1212H571V1210ZM570 1151V1211H572V1151H570ZM551 1152H571V1150H551V1152ZM550 1131V1151H552V1131H550Z" fill="#8C8C8C" mask="url(#path-47-inside-6_8_2)"/>
</g>
<rect id="Goats" opacity="0.5" x="491.5" y="1191.5" width="79" height="19" stroke="#8C8C8C"/>
</g>
<g id="Dogs (8)">
<rect id="Dogs [outline]" x="571.5" y="1151.5" width="39" height="39" fill="#E5DCD5" stroke="#80726A"/>
<g id="Label_17">
<g id="Label_18">
<circle id="Background_9" cx="591" cy="1171" r="8" fill="white" stroke="black"/>
<path id="Number_9" d="M588.773 1172.79C588.773 1172.56 588.803 1172.35 588.863 1172.17C588.923 1171.98 589.006 1171.82 589.113 1171.67C589.226 1171.52 589.356 1171.38 589.503 1171.26C589.656 1171.14 589.82 1171.03 589.993 1170.93C589.666 1170.72 589.41 1170.49 589.223 1170.22C589.036 1169.95 588.943 1169.61 588.943 1169.21C588.943 1168.95 588.99 1168.71 589.083 1168.48C589.183 1168.25 589.323 1168.06 589.503 1167.89C589.69 1167.72 589.913 1167.59 590.173 1167.5C590.433 1167.41 590.726 1167.36 591.053 1167.36C591.353 1167.36 591.626 1167.4 591.873 1167.48C592.12 1167.56 592.33 1167.67 592.503 1167.82C592.683 1167.97 592.82 1168.15 592.913 1168.36C593.013 1168.57 593.063 1168.8 593.063 1169.05C593.063 1169.44 592.973 1169.78 592.793 1170.05C592.62 1170.32 592.363 1170.57 592.023 1170.8C592.423 1171.03 592.723 1171.29 592.923 1171.57C593.13 1171.85 593.233 1172.21 593.233 1172.65C593.233 1172.95 593.176 1173.22 593.063 1173.47C592.956 1173.71 592.803 1173.92 592.603 1174.09C592.403 1174.26 592.163 1174.4 591.883 1174.5C591.603 1174.59 591.296 1174.64 590.963 1174.64C590.63 1174.64 590.326 1174.59 590.053 1174.5C589.786 1174.41 589.556 1174.29 589.363 1174.13C589.176 1173.97 589.03 1173.78 588.923 1173.55C588.823 1173.32 588.773 1173.07 588.773 1172.79ZM591.993 1172.66C591.993 1172.51 591.956 1172.37 591.883 1172.24C591.81 1172.11 591.713 1172 591.593 1171.9C591.48 1171.79 591.35 1171.7 591.203 1171.61C591.063 1171.52 590.92 1171.44 590.773 1171.36C590.46 1171.54 590.243 1171.74 590.123 1171.95C590.01 1172.16 589.953 1172.36 589.953 1172.57C589.953 1172.84 590.043 1173.07 590.223 1173.26C590.41 1173.45 590.666 1173.54 590.993 1173.54C591.293 1173.54 591.533 1173.47 591.713 1173.32C591.9 1173.17 591.993 1172.95 591.993 1172.66ZM590.183 1169.23C590.183 1169.39 590.213 1169.53 590.273 1169.65C590.333 1169.77 590.413 1169.88 590.513 1169.97C590.62 1170.06 590.736 1170.14 590.863 1170.22C590.996 1170.29 591.133 1170.36 591.273 1170.43C591.673 1170.09 591.873 1169.72 591.873 1169.31C591.873 1169.03 591.79 1168.82 591.623 1168.68C591.463 1168.53 591.266 1168.46 591.033 1168.46C590.74 1168.46 590.523 1168.54 590.383 1168.69C590.25 1168.84 590.183 1169.02 590.183 1169.23Z" fill="black"/>
</g>
</g>
</g>
<g id="House (7)">
<g id="House [outline]" style="mix-blend-mode:lighten">
<mask id="path-53-inside-7_8_2" fill="white">
<path fill-rule="evenodd" clip-rule="evenodd" d="M551 1131H511V1151H491V1191H571V1151H551V1131Z"/>
</mask>
<path fill-rule="evenodd" clip-rule="evenodd" d="M551 1131H511V1151H491V1191H571V1151H551V1131Z" fill="black"/>
<path d="M511 1131V1130H510V1131H511ZM551 1131H552V1130H551V1131ZM511 1151V1152H512V1151H511ZM491 1151V1150H490V1151H491ZM491 1191H490V1192H491V1191ZM571 1191V1192H572V1191H571ZM571 1151H572V1150H571V1151ZM551 1151H550V1152H551V1151ZM511 1132H551V1130H511V1132ZM512 1151V1131H510V1151H512ZM491 1152H511V1150H491V1152ZM492 1191V1151H490V1191H492ZM571 1190H491V1192H571V1190ZM570 1151V1191H572V1151H570ZM551 1152H571V1150H551V1152ZM550 1131V1151H552V1131H550Z" fill="black" mask="url(#path-53-inside-7_8_2)"/>
</g>
<g id="Label_19">
<g id="Label_20">
<circle id="Background_10" cx="531" cy="1171" r="8" fill="white" stroke="black"/>
<path id="Number_10" d="M529.203 1174.5L531.493 1169.11L531.933 1168.62L531.333 1168.72H528.763V1167.5H533.273V1167.88L530.473 1174.5H529.203Z" fill="black"/>
</g>
</g>
</g>
<g id="Goats (6)">
<g id="Goats [outline]" style="mix-blend-mode:lighten">
<rect x="491.5" y="1191.5" width="79" height="19" fill="black"/>
<rect x="491.5" y="1191.5" width="79" height="19" stroke="black"/>
</g>
<g id="Label_21">
<g id="Label_22">
<circle id="Background_11" cx="531" cy="1201" r="8" fill="white" stroke="black"/>
<path id="Number_11" d="M533.363 1202.33C533.363 1202.66 533.306 1202.96 533.193 1203.24C533.086 1203.52 532.933 1203.76 532.733 1203.97C532.533 1204.18 532.29 1204.34 532.003 1204.46C531.723 1204.58 531.413 1204.64 531.073 1204.64C530.726 1204.64 530.406 1204.59 530.113 1204.48C529.826 1204.37 529.576 1204.2 529.363 1203.98C529.15 1203.76 528.983 1203.48 528.863 1203.15C528.743 1202.82 528.683 1202.43 528.683 1201.99C528.683 1201.33 528.776 1200.73 528.963 1200.2C529.156 1199.67 529.413 1199.2 529.733 1198.81C530.06 1198.41 530.436 1198.09 530.863 1197.85C531.296 1197.6 531.753 1197.44 532.233 1197.36L532.523 1198.39C532.19 1198.44 531.883 1198.55 531.603 1198.7C531.323 1198.85 531.073 1199.04 530.853 1199.25C530.64 1199.46 530.456 1199.7 530.303 1199.97C530.156 1200.23 530.053 1200.5 529.993 1200.78C530.126 1200.61 530.3 1200.47 530.513 1200.36C530.726 1200.24 530.993 1200.18 531.313 1200.18C531.613 1200.18 531.89 1200.23 532.143 1200.32C532.396 1200.41 532.613 1200.55 532.793 1200.74C532.973 1200.92 533.113 1201.14 533.213 1201.41C533.313 1201.68 533.363 1201.98 533.363 1202.33ZM532.103 1202.4C532.103 1201.65 531.736 1201.28 531.003 1201.28C530.736 1201.28 530.51 1201.34 530.323 1201.46C530.143 1201.58 530.016 1201.72 529.943 1201.88C529.93 1201.95 529.923 1202.02 529.923 1202.07C529.923 1202.12 529.923 1202.18 529.923 1202.23C529.923 1202.39 529.946 1202.55 529.993 1202.71C530.04 1202.86 530.106 1203 530.193 1203.13C530.286 1203.25 530.403 1203.35 530.543 1203.43C530.683 1203.5 530.85 1203.54 531.043 1203.54C531.356 1203.54 531.61 1203.43 531.803 1203.22C532.003 1203.01 532.103 1202.73 532.103 1202.4Z" fill="black"/>
</g>
</g>
</g>
</g>
<g id="Car Shelter (5)">
<rect id="Car Shelter [outline]" x="411.5" y="1151.5" width="59" height="39" fill="#D9D9D9" stroke="#8C8C8C"/>
<g id="Label_23">
<g id="Label_24">
<circle id="Background_12" cx="441" cy="1171" r="8" fill="white" stroke="black"/>
<path id="Number_12" d="M440.363 1173.49C440.803 1173.49 441.14 1173.38 441.373 1173.17C441.606 1172.96 441.723 1172.66 441.723 1172.29C441.723 1171.89 441.586 1171.6 441.313 1171.41C441.04 1171.22 440.65 1171.13 440.143 1171.13L439.353 1171.16V1167.5H442.793V1168.72H440.473V1170.07L440.883 1170.03C441.21 1170.04 441.503 1170.1 441.763 1170.21C442.03 1170.32 442.256 1170.47 442.443 1170.66C442.63 1170.85 442.773 1171.08 442.873 1171.35C442.973 1171.62 443.023 1171.92 443.023 1172.25C443.023 1172.64 442.956 1172.99 442.823 1173.29C442.69 1173.59 442.503 1173.84 442.263 1174.04C442.03 1174.24 441.753 1174.39 441.433 1174.49C441.113 1174.59 440.763 1174.64 440.383 1174.64C440.083 1174.64 439.796 1174.61 439.523 1174.56C439.256 1174.51 439.03 1174.45 438.843 1174.36L439.193 1173.28C439.346 1173.35 439.513 1173.4 439.693 1173.44C439.88 1173.47 440.103 1173.49 440.363 1173.49Z" fill="black"/>
</g>
</g>
</g>
<g id="Training Center (4)">
<g id="Training Center [outline]">
<mask id="path-63-inside-8_8_2" fill="white">
<path fill-rule="evenodd" clip-rule="evenodd" d="M611 1371H491V1401H471V1421H491V1451H611V1371Z"/>
</mask>
<path fill-rule="evenodd" clip-rule="evenodd" d="M611 1371H491V1401H471V1421H491V1451H611V1371Z" fill="#D9D9D9"/>
<path d="M491 1371V1370H490V1371H491ZM611 1371H612V1370H611V1371ZM491 1401V1402H492V1401H491ZM471 1401V1400H470V1401H471ZM471 1421H470V1422H471V1421ZM491 1421H492V1420H491V1421ZM491 1451H490V1452H491V1451ZM611 1451V1452H612V1451H611ZM491 1372H611V1370H491V1372ZM492 1401V1371H490V1401H492ZM471 1402H491V1400H471V1402ZM472 1421V1401H470V1421H472ZM491 1420H471V1422H491V1420ZM492 1451V1421H490V1451H492ZM611 1450H491V1452H611V1450ZM610 1371V1451H612V1371H610Z" fill="#8C8C8C" mask="url(#path-63-inside-8_8_2)"/>
</g>
<g id="Label_25">
<g id="Label_26">
<circle id="Background_13" cx="551" cy="1411" r="8" fill="white" stroke="black"/>
<path id="Number_13" d="M553.693 1412.55H552.593V1414.5H551.383V1412.55H548.353V1411.81L551.523 1407.45H552.593V1411.51H553.693V1412.55ZM551.383 1409.98L551.473 1409.14H551.433L551.093 1409.86L550.053 1411.21L549.553 1411.59L550.193 1411.51H551.383V1409.98Z" fill="black"/>
</g>
</g>
</g>
<g id="Chickens (3)">
<g id="Chickens [outline]">
<mask id="path-67-inside-9_8_2" fill="white">
<path fill-rule="evenodd" clip-rule="evenodd" d="M36 1431H16V1471H11V1501H41V1471H36V1431Z"/>
</mask>
<path fill-rule="evenodd" clip-rule="evenodd" d="M36 1431H16V1471H11V1501H41V1471H36V1431Z" fill="#D9D9D9"/>
<path d="M16 1431V1430H15V1431H16ZM36 1431H37V1430H36V1431ZM16 1471V1472H17V1471H16ZM11 1471V1470H10V1471H11ZM11 1501H10V1502H11V1501ZM41 1501V1502H42V1501H41ZM41 1471H42V1470H41V1471ZM36 1471H35V1472H36V1471ZM16 1432H36V1430H16V1432ZM17 1471V1431H15V1471H17ZM11 1472H16V1470H11V1472ZM12 1501V1471H10V1501H12ZM41 1500H11V1502H41V1500ZM40 1471V1501H42V1471H40ZM36 1472H41V1470H36V1472ZM35 1431V1471H37V1431H35Z" fill="#8C8C8C" mask="url(#path-67-inside-9_8_2)"/>
</g>
<rect id="Chicken Coup" opacity="0.5" x="11.5" y="1471.5" width="29" height="29" stroke="#8C8C8C"/>
<g id="Label_27">
<g id="Label_28">
<circle id="Background_14" cx="26" cy="1486" r="8" fill="white" stroke="black"/>
<path id="Number_14" d="M25.5731 1488.54C25.9864 1488.54 26.2998 1488.43 26.5131 1488.21C26.7331 1487.99 26.8431 1487.72 26.8431 1487.41C26.8431 1487.03 26.7298 1486.75 26.5031 1486.57C26.2764 1486.39 25.9198 1486.3 25.4331 1486.3H24.7131V1485.61L25.9231 1483.96L26.4931 1483.51L25.7031 1483.6H24.0231V1482.5H27.8431V1483.21L26.4331 1485.1L25.9931 1485.37V1485.42L26.4131 1485.36C26.6464 1485.38 26.8664 1485.43 27.0731 1485.52C27.2864 1485.61 27.4698 1485.73 27.6231 1485.9C27.7831 1486.06 27.9098 1486.26 28.0031 1486.5C28.0964 1486.74 28.1431 1487.02 28.1431 1487.33C28.1431 1487.72 28.0764 1488.06 27.9431 1488.35C27.8164 1488.64 27.6364 1488.88 27.4031 1489.07C27.1764 1489.26 26.9098 1489.41 26.6031 1489.5C26.2964 1489.59 25.9664 1489.64 25.6131 1489.64C25.3198 1489.64 25.0164 1489.61 24.7031 1489.56C24.3898 1489.51 24.1364 1489.43 23.9431 1489.33L24.2931 1488.25C24.4664 1488.34 24.6564 1488.41 24.8631 1488.46C25.0764 1488.51 25.3131 1488.54 25.5731 1488.54Z" fill="black"/>
</g>
</g>
</g>
<g id="Parrots (2)">
<g id="Parrots [outline]">
<mask id="path-72-inside-10_8_2" fill="white">
<path fill-rule="evenodd" clip-rule="evenodd" d="M61 1491H81V1511H101V1571H41H21V1511H41H61V1491Z"/>
</mask>
<path fill-rule="evenodd" clip-rule="evenodd" d="M61 1491H81V1511H101V1571H41H21V1511H41H61V1491Z" fill="#D9D9D9"/>
<path d="M81 1491H82V1490H81V1491ZM61 1491V1490H60V1491H61ZM81 1511H80V1512H81V1511ZM101 1511H102V1510H101V1511ZM101 1571V1572H102V1571H101ZM21 1571H20V1572H21V1571ZM21 1511V1510H20V1511H21ZM61 1511V1512H62V1511H61ZM81 1490H61V1492H81V1490ZM82 1511V1491H80V1511H82ZM101 1510H81V1512H101V1510ZM102 1571V1511H100V1571H102ZM41 1572H101V1570H41V1572ZM41 1570H21V1572H41V1570ZM22 1571V1511H20V1571H22ZM21 1512H41V1510H21V1512ZM61 1510H41V1512H61V1510ZM60 1491V1511H62V1491H60Z" fill="#8C8C8C" mask="url(#path-72-inside-10_8_2)"/>
</g>
<g id="Parrot House" opacity="0.5">
<mask id="path-74-inside-11_8_2" fill="white">
<path d="M21 1511H41V1571H21V1511Z"/>
</mask>
<path d="M40 1511V1571H42V1511H40Z" fill="#8C8C8C" mask="url(#path-74-inside-11_8_2)"/>
</g>
<g id="Label_29">
<g id="Label_30">
<circle id="Background_15" cx="61" cy="1541" r="8" fill="white" stroke="black"/>
<path id="Number_15" d="M62.9131 1539.21C62.9131 1539.55 62.8498 1539.89 62.7231 1540.24C62.6031 1540.59 62.4464 1540.93 62.2531 1541.26C62.0664 1541.59 61.8564 1541.92 61.6231 1542.23C61.3964 1542.54 61.1731 1542.82 60.9531 1543.08L60.4231 1543.49V1543.54L61.1431 1543.4H63.0631V1544.5H58.8531V1543.83C59.0131 1543.66 59.1931 1543.47 59.3931 1543.25C59.5931 1543.02 59.7931 1542.79 59.9931 1542.54C60.1998 1542.29 60.3998 1542.03 60.5931 1541.76C60.7864 1541.49 60.9598 1541.23 61.1131 1540.96C61.2664 1540.69 61.3864 1540.42 61.4731 1540.17C61.5664 1539.92 61.6131 1539.68 61.6131 1539.45C61.6131 1539.18 61.5331 1538.95 61.3731 1538.78C61.2198 1538.6 60.9731 1538.51 60.6331 1538.51C60.4198 1538.51 60.1998 1538.56 59.9731 1538.65C59.7531 1538.74 59.5664 1538.85 59.4131 1538.99L58.8931 1538.07C59.1531 1537.86 59.4464 1537.69 59.7731 1537.56C60.1064 1537.43 60.4964 1537.36 60.9431 1537.36C61.2298 1537.36 61.4931 1537.4 61.7331 1537.48C61.9731 1537.56 62.1798 1537.68 62.3531 1537.83C62.5264 1537.98 62.6631 1538.18 62.7631 1538.41C62.8631 1538.64 62.9131 1538.9 62.9131 1539.21Z" fill="black"/>
</g>
</g>
</g>
<g id="Pasture (1)">
<path id="Pasture [outline]" d="M641 2122.5C641.829 2122.5 642.5 2121.83 642.5 2121V1531C642.5 1530.17 641.829 1529.5 641 1529.5H491.214L251.42 1459.56C250.875 1459.4 250.287 1459.56 249.901 1459.98L184.901 1529.98C184.643 1530.26 184.5 1530.62 184.5 1531V1716C184.5 1716.29 184.585 1716.58 184.745 1716.82L449.745 2121.82C450.022 2122.24 450.494 2122.5 451 2122.5H641Z" fill="#B9B5A4" stroke="#80726A" stroke-width="3" stroke-linejoin="round"/>
<rect id="Pasture Barn" x="561.5" y="1531.5" width="79" height="39" fill="#D9D9D9" stroke="#8C8C8C"/>
<g id="Label_31">
<g id="Label_32">
<circle id="Background_16" cx="413.5" cy="1796" r="8" fill="white" stroke="black"/>
<path id="Number_16" d="M411.673 1798.4H413.063V1794.45L413.213 1793.77L412.733 1794.36L411.843 1794.97L411.293 1794.22L413.573 1792.38H414.303V1798.4H415.663V1799.5H411.673V1798.4Z" fill="black"/>
</g>
</g>
</g>
</g>
<g id="Birds" opacity="0.25">
<path id="Vector" d="M392.323 1612.32C393.721 1610.93 393.575 1608.1 393.575 1608.1C393.575 1608.1 387.424 1604.85 386.417 1602.95C385.41 1601.05 385.851 1594.06 391.866 1591.18C395.68 1589.35 406.53 1581.98 405.98 1581.21C405.43 1580.43 392.4 1581.99 387.999 1583.51C383.597 1585.03 381.832 1587.97 380.447 1591.7C379.062 1595.44 376.521 1594.17 375.907 1593.45C375.293 1592.72 373.728 1592.5 372.441 1592.44C372.497 1593.73 372.721 1595.29 373.449 1595.91C374.177 1596.52 375.437 1599.06 371.703 1600.45C367.968 1601.83 365.034 1603.6 363.511 1608C361.988 1612.4 360.43 1625.43 361.206 1625.98C361.982 1626.53 369.353 1615.68 371.182 1611.86C374.065 1605.85 381.053 1605.41 382.954 1606.42C384.854 1607.42 388.097 1613.57 388.097 1613.57C388.097 1613.57 390.925 1613.72 392.323 1612.32Z" fill="black"/>
<path id="Vector_2" d="M308.844 1643.84C310.087 1642.6 309.956 1640.08 309.956 1640.08C309.956 1640.08 304.49 1637.2 303.595 1635.51C302.701 1633.82 303.09 1627.61 308.438 1625.05C311.828 1623.42 321.471 1616.87 320.982 1616.18C320.493 1615.49 308.913 1616.88 305 1618.23C301.086 1619.59 299.52 1622.19 298.287 1625.51C297.054 1628.83 294.798 1627.71 294.25 1627.06C293.702 1626.42 292.311 1626.22 291.169 1626.17C291.22 1627.31 291.419 1628.71 292.064 1629.25C292.711 1629.8 293.831 1632.05 290.514 1633.29C287.196 1634.52 284.588 1636.09 283.232 1640C281.878 1643.91 280.495 1655.49 281.182 1655.98C281.87 1656.47 288.424 1646.83 290.049 1643.44C292.612 1638.09 298.822 1637.7 300.511 1638.6C302.201 1639.49 305.083 1644.96 305.083 1644.96C305.083 1644.96 307.603 1645.08 308.844 1643.84Z" fill="black"/>
<path id="Vector_3" d="M255.363 1625.37C256.45 1624.28 256.335 1622.08 256.335 1622.08C256.335 1622.08 251.551 1619.55 250.768 1618.08C249.984 1616.6 250.326 1611.16 255.007 1608.92C257.974 1607.49 266.412 1601.76 265.984 1601.16C265.557 1600.56 255.423 1601.77 251.999 1602.95C248.575 1604.14 247.203 1606.42 246.127 1609.33C245.048 1612.23 243.073 1611.25 242.594 1610.68C242.115 1610.12 240.898 1609.94 239.899 1609.9C239.942 1610.9 240.117 1612.12 240.683 1612.59C241.248 1613.07 242.229 1615.05 239.325 1616.13C236.421 1617.21 234.139 1618.57 232.954 1622C231.768 1625.42 230.557 1635.56 231.16 1635.98C231.763 1636.41 237.497 1627.97 238.917 1625.01C241.162 1620.33 246.595 1619.99 248.076 1620.77C249.554 1621.55 252.076 1626.34 252.076 1626.34C252.076 1626.34 254.275 1626.45 255.363 1625.37Z" fill="black"/>
<path id="Vector_4" d="M345.363 1575.37C346.45 1574.28 346.335 1572.08 346.335 1572.08C346.335 1572.08 341.551 1569.55 340.768 1568.08C339.984 1566.6 340.326 1561.16 345.007 1558.92C347.974 1557.49 356.412 1551.76 355.984 1551.16C355.557 1550.56 345.423 1551.77 341.999 1552.95C338.575 1554.14 337.203 1556.42 336.127 1559.33C335.048 1562.23 333.073 1561.25 332.594 1560.68C332.115 1560.12 330.898 1559.94 329.899 1559.9C329.942 1560.9 330.117 1562.12 330.683 1562.59C331.248 1563.07 332.229 1565.05 329.325 1566.13C326.421 1567.21 324.139 1568.57 322.954 1572C321.768 1575.42 320.557 1585.56 321.16 1585.98C321.763 1586.41 327.497 1577.97 328.917 1575.01C331.162 1570.33 336.595 1569.99 338.076 1570.77C339.554 1571.55 342.076 1576.34 342.076 1576.34C342.076 1576.34 344.278 1576.45 345.363 1575.37Z" fill="black"/>
<path id="Vector_5" d="M285.805 1575.81C287.357 1574.25 287.195 1571.11 287.195 1571.11C287.195 1571.11 280.361 1567.5 279.244 1565.39C278.125 1563.28 278.615 1555.52 285.298 1552.31C289.535 1550.28 301.59 1542.09 300.978 1541.23C300.366 1540.37 285.892 1542.1 280.999 1543.79C276.106 1545.48 274.148 1548.74 272.608 1552.89C271.068 1557.04 268.246 1555.64 267.564 1554.83C266.883 1554.03 265.142 1553.78 263.712 1553.71C263.773 1555.14 264.023 1556.88 264.832 1557.56C265.638 1558.25 267.042 1561.07 262.892 1562.61C258.744 1564.15 255.484 1566.11 253.79 1571C252.096 1575.89 250.367 1590.37 251.229 1590.98C252.09 1591.59 260.281 1579.54 262.311 1575.3C265.516 1568.61 273.278 1568.12 275.393 1569.24C277.507 1570.36 281.106 1577.19 281.106 1577.19C281.106 1577.19 284.253 1577.36 285.805 1575.81Z" fill="black"/>
</g>
</g>
<path d="M1 1V0H0V1H1ZM651 1H652V0H651V1ZM651 2151V2152H652V2151H651ZM1 2151H0V2152H1V2151ZM1 2H651V0H1V2ZM650 1V2151H652V1H650ZM651 2150H1V2152H651V2150ZM2 2151V1H0V2151H2Z" fill="#A6B2A0"/>
</g>
<defs>
<clipPath id="clip0_8_2">
<path d="M1 1H651V2151H1V1Z" fill="white"/>
</clipPath>
</defs>
</svg>
