<svg width="652" height="2152" viewBox="0 0 652 2152" fill="none" xmlns="http://www.w3.org/2000/svg">
<g id="Map">
<g clip-path="url(#clip0_8_2)">
<path d="M1 1H651V2151H1V1Z" fill="#FFF4EC"/>
<g id="Paths">
<path id="Pasture Path" d="M541 1531V1491L517 1471H451V1371L481 1321V1061" stroke="#CCB7A9" stroke-width="10" stroke-linecap="round" stroke-linejoin="round"/>
<path id="Parrots Path" d="M231 1491L191 1461H71" stroke="#CCB7A9" stroke-width="10" stroke-linecap="round" stroke-linejoin="round"/>
<path id="Core Path" d="M481 1111H531M531 1111V1131M531 1111H571V1071M571 1071L586 1061M571 1071L551 1061H481" stroke="#CCB7A9" stroke-width="10" stroke-linecap="round" stroke-linejoin="round"/>
<path id="Barn Path" d="M531 1061V951M531 951H461M531 951V921L481 881H371" stroke="#CCB7A9" stroke-width="10" stroke-linecap="round" stroke-linejoin="round"/>
<path id="Well Path" d="M421 1211L291 1111" stroke="#CCB7A9" stroke-width="10" stroke-linecap="round" stroke-linejoin="round"/>
<path id="Fox Path" d="M211 11H291" stroke="#CCB7A9" stroke-width="10" stroke-linecap="round" stroke-linejoin="round"/>
<path id="Fork Path" d="M291 731H111L61 681" stroke="#CCB7A9" stroke-width="10" stroke-linecap="round" stroke-linejoin="round"/>
<rect id="Garden" x="506.5" y="1076.5" width="39" height="19" rx="9.5" fill="#E5DCD5" stroke="#80726A"/>
</g>
<g id="Roads">
<path id="Entrance Road" d="M421 2151V2131L151 1721V1511L451 1171" stroke="#80726A" stroke-width="20" stroke-linecap="round" stroke-linejoin="round"/>
<path id="Secondary Road" d="M291 1351V971L391 851L291 731V1" stroke="#80726A" stroke-width="20" stroke-linecap="round" stroke-linejoin="round"/>
</g>
<g id="Trees">
<path id="Trees_2" d="M391 2151H1V1591H111V1731L391 2151Z" fill="#A6B2A0"/>
<path id="Trees_3" d="M181 1401H1V1H151V191H261V381H151V501H261V696H125.5L76 646L36 656L26 696L96 766H261L331 851L241 961V1336L181 1401Z" fill="#A6B2A0"/>
<path id="Trees_4" d="M321 551V1H651V991H561V911L491 851H441L321 711V671H431V551H321Z" fill="#A6B2A0"/>
</g>
<g id="Items">
<g id="Foxes [outline]">
<g id="Foxes">
<mask id="path-16-inside-1_8_2" fill="white">
<path fill-rule="evenodd" clip-rule="evenodd" d="M201 31H221V51H261V171H201V91H161V51H201V31Z"/>
</mask>
<path fill-rule="evenodd" clip-rule="evenodd" d="M201 31H221V51H261V171H201V91H161V51H201V31Z" fill="#D9D9D9"/>
<path d="M221 31H222V30H221V31ZM201 31V30H200V31H201ZM221 51H220V52H221V51ZM261 51H262V50H261V51ZM261 171V172H262V171H261ZM201 171H200V172H201V171ZM201 91H202V90H201V91ZM161 91H160V92H161V91ZM161 51V50H160V51H161ZM201 51V52H202V51H201ZM221 30H201V32H221V30ZM222 51V31H220V51H222ZM261 50H221V52H261V50ZM262 171V51H260V171H262ZM201 172H261V170H201V172ZM200 91V171H202V91H200ZM201 90H161V92H201V90ZM162 91V51H160V91H162ZM161 52H201V50H161V52ZM200 31V51H202V31H200Z" fill="#8C8C8C" mask="url(#path-16-inside-1_8_2)"/>
</g>
<g id="Fox House" opacity="0.5">
<mask id="path-18-outside-2_8_2" maskUnits="userSpaceOnUse" x="161" y="51" width="41" height="40" fill="black">
<rect fill="white" x="161" y="51" width="41" height="40"/>
<path d="M161 51H201V91H161V51Z"/>
</mask>
<path d="M200 51V91H202V51H200Z" fill="#8C8C8C" mask="url(#path-18-outside-2_8_2)"/>
</g>
<g id="Label">
<g id="Label_2">
<circle id="Background" cx="231" cy="111" r="8" fill="white" stroke="black"/>
<path id="Number" d="M226.336 113.4H227.726V109.45L227.876 108.77L227.396 109.36L226.506 109.97L225.956 109.22L228.236 107.38H228.966V113.4H230.326V114.5H226.336V113.4ZM231.61 112.79C231.61 112.557 231.64 112.35 231.7 112.17C231.76 111.983 231.843 111.817 231.95 111.67C232.063 111.517 232.193 111.38 232.34 111.26C232.493 111.14 232.657 111.03 232.83 110.93C232.503 110.723 232.247 110.487 232.06 110.22C231.873 109.947 231.78 109.61 231.78 109.21C231.78 108.95 231.827 108.707 231.92 108.48C232.02 108.253 232.16 108.057 232.34 107.89C232.527 107.723 232.75 107.593 233.01 107.5C233.27 107.407 233.563 107.36 233.89 107.36C234.19 107.36 234.463 107.4 234.71 107.48C234.957 107.56 235.167 107.673 235.34 107.82C235.52 107.967 235.657 108.147 235.75 108.36C235.85 108.567 235.9 108.797 235.9 109.05C235.9 109.443 235.81 109.777 235.63 110.05C235.457 110.323 235.2 110.573 234.86 110.8C235.26 111.033 235.56 111.29 235.76 111.57C235.967 111.85 236.07 112.21 236.07 112.65C236.07 112.95 236.013 113.223 235.9 113.47C235.793 113.71 235.64 113.917 235.44 114.09C235.24 114.263 235 114.4 234.72 114.5C234.44 114.593 234.133 114.64 233.8 114.64C233.467 114.64 233.163 114.593 232.89 114.5C232.623 114.413 232.393 114.29 232.2 114.13C232.013 113.97 231.867 113.777 231.76 113.55C231.66 113.323 231.61 113.07 231.61 112.79ZM234.83 112.66C234.83 112.507 234.793 112.367 234.72 112.24C234.647 112.113 234.55 112 234.43 111.9C234.317 111.793 234.187 111.697 234.04 111.61C233.9 111.523 233.757 111.44 233.61 111.36C233.297 111.54 233.08 111.737 232.96 111.95C232.847 112.157 232.79 112.363 232.79 112.57C232.79 112.837 232.88 113.067 233.06 113.26C233.247 113.447 233.503 113.54 233.83 113.54C234.13 113.54 234.37 113.467 234.55 113.32C234.737 113.173 234.83 112.953 234.83 112.66ZM233.02 109.23C233.02 109.39 233.05 109.53 233.11 109.65C233.17 109.77 233.25 109.877 233.35 109.97C233.457 110.057 233.573 110.14 233.7 110.22C233.833 110.293 233.97 110.363 234.11 110.43C234.51 110.09 234.71 109.717 234.71 109.31C234.71 109.03 234.627 108.82 234.46 108.68C234.3 108.533 234.103 108.46 233.87 108.46C233.577 108.46 233.36 108.537 233.22 108.69C233.087 108.843 233.02 109.023 233.02 109.23Z" fill="black"/>
</g>
</g>
</g>
<g id="Orion [outline]">
<g id="Orion">
<mask id="path-22-inside-3_8_2" fill="white">
<path fill-rule="evenodd" clip-rule="evenodd" d="M251 401H171V481H251V451H271V431H251V401Z"/>
</mask>
<path fill-rule="evenodd" clip-rule="evenodd" d="M251 401H171V481H251V451H271V431H251V401Z" fill="#D9D9D9"/>
<path d="M171 401V400H170V401H171ZM251 401H252V400H251V401ZM171 481H170V482H171V481ZM251 481V482H252V481H251ZM251 451V450H250V451H251ZM271 451V452H272V451H271ZM271 431H272V430H271V431ZM251 431H250V432H251V431ZM171 402H251V400H171V402ZM172 481V401H170V481H172ZM251 480H171V482H251V480ZM250 451V481H252V451H250ZM271 450H251V452H271V450ZM270 431V451H272V431H270ZM251 432H271V430H251V432ZM250 401V431H252V401H250Z" fill="#8C8C8C" mask="url(#path-22-inside-3_8_2)"/>
</g>
<g id="Label_3">
<g id="Label_4">
<circle id="Background_2" cx="211" cy="441" r="8" fill="white" stroke="black"/>
<path id="Number_2" d="M206.336 443.4H207.726V439.45L207.876 438.77L207.396 439.36L206.506 439.97L205.956 439.22L208.236 437.38H208.966V443.4H210.326V444.5H206.336V443.4ZM212.04 444.5L214.33 439.11L214.77 438.62L214.17 438.72H211.6V437.5H216.11V437.88L213.31 444.5H212.04Z" fill="black"/>
</g>
</g>
</g>
<g id="Crows [outline]">
<g id="Crows">
<mask id="path-26-inside-4_8_2" fill="white">
<path fill-rule="evenodd" clip-rule="evenodd" d="M411 571H331V601H311V621H331L331 651H411V571Z"/>
</mask>
<path fill-rule="evenodd" clip-rule="evenodd" d="M411 571H331V601H311V621H331L331 651H411V571Z" fill="#D9D9D9"/>
<path d="M331 571V570H330V571L331 571ZM411 571H412V570H411V571ZM331 601V602H332V601H331ZM311 601V600H310V601H311ZM311 621H310V622H311V621ZM331 621H332V620H331V621ZM331 651H330V652H331V651ZM411 651V652H412V651H411ZM331 572H411V570H331V572ZM332 601L332 571L330 571L330 601H332ZM311 602H331V600H311V602ZM312 621V601H310V621H312ZM331 620H311V622H331V620ZM332 651L332 621H330L330 651H332ZM411 650H331V652H411V650ZM410 571V651H412V571H410Z" fill="#8C8C8C" mask="url(#path-26-inside-4_8_2)"/>
</g>
<g id="Label_5">
<g id="Label_6">
<circle id="Background_3" cx="371" cy="611" r="8" fill="white" stroke="black"/>
<path id="Number_3" d="M366.336 613.4H367.726V609.45L367.876 608.77L367.396 609.36L366.506 609.97L365.956 609.22L368.236 607.38H368.966V613.4H370.326V614.5H366.336V613.4ZM376.2 612.33C376.2 612.657 376.143 612.96 376.03 613.24C375.923 613.52 375.77 613.763 375.57 613.97C375.37 614.177 375.127 614.34 374.84 614.46C374.56 614.58 374.25 614.64 373.91 614.64C373.563 614.64 373.243 614.587 372.95 614.48C372.663 614.367 372.413 614.2 372.2 613.98C371.987 613.76 371.82 613.483 371.7 613.15C371.58 612.817 371.52 612.43 371.52 611.99C371.52 611.33 371.613 610.733 371.8 610.2C371.993 609.667 372.25 609.203 372.57 608.81C372.897 608.41 373.273 608.09 373.7 607.85C374.133 607.603 374.59 607.44 375.07 607.36L375.36 608.39C375.027 608.443 374.72 608.547 374.44 608.7C374.16 608.853 373.91 609.037 373.69 609.25C373.477 609.463 373.293 609.703 373.14 609.97C372.993 610.23 372.89 610.5 372.83 610.78C372.963 610.613 373.137 610.473 373.35 610.36C373.563 610.24 373.83 610.18 374.15 610.18C374.45 610.18 374.727 610.227 374.98 610.32C375.233 610.413 375.45 610.553 375.63 610.74C375.81 610.92 375.95 611.143 376.05 611.41C376.15 611.677 376.2 611.983 376.2 612.33ZM374.94 612.4C374.94 611.653 374.573 611.28 373.84 611.28C373.573 611.28 373.347 611.34 373.16 611.46C372.98 611.58 372.853 611.72 372.78 611.88C372.767 611.953 372.76 612.017 372.76 612.07C372.76 612.123 372.76 612.177 372.76 612.23C372.76 612.39 372.783 612.55 372.83 612.71C372.877 612.863 372.943 613.003 373.03 613.13C373.123 613.25 373.24 613.35 373.38 613.43C373.52 613.503 373.687 613.54 373.88 613.54C374.193 613.54 374.447 613.433 374.64 613.22C374.84 613.007 374.94 612.733 374.94 612.4Z" fill="black"/>
</g>
</g>
</g>
<g id="Barn [outline]">
<g id="Barn">
<mask id="path-30-inside-5_8_2" fill="white">
<path fill-rule="evenodd" clip-rule="evenodd" d="M461 921H361V981H411V1001H451V981H461V921Z"/>
</mask>
<path fill-rule="evenodd" clip-rule="evenodd" d="M461 921H361V981H411V1001H451V981H461V921Z" fill="#D9D9D9"/>
<path d="M361 921V920H360V921H361ZM461 921H462V920H461V921ZM361 981H360V982H361V981ZM411 981H412V980H411V981ZM411 1001H410V1002H411V1001ZM451 1001V1002H452V1001H451ZM451 981V980H450V981H451ZM461 981V982H462V981H461ZM361 922H461V920H361V922ZM362 981V921H360V981H362ZM411 980H361V982H411V980ZM412 1001V981H410V1001H412ZM451 1000H411V1002H451V1000ZM450 981V1001H452V981H450ZM461 980H451V982H461V980ZM460 921V981H462V921H460Z" fill="#8C8C8C" mask="url(#path-30-inside-5_8_2)"/>
</g>
<g id="Label_7">
<g id="Label_8">
<circle id="Background_4" cx="411" cy="951" r="8" fill="white" stroke="black"/>
<path id="Number_4" d="M406.336 953.4H407.726V949.45L407.876 948.77L407.396 949.36L406.506 949.97L405.956 949.22L408.236 947.38H408.966V953.4H410.326V954.5H406.336V953.4ZM413.2 953.49C413.64 953.49 413.977 953.383 414.21 953.17C414.443 952.957 414.56 952.663 414.56 952.29C414.56 951.89 414.423 951.597 414.15 951.41C413.877 951.223 413.487 951.13 412.98 951.13L412.19 951.16V947.5H415.63V948.72H413.31V950.07L413.72 950.03C414.047 950.043 414.34 950.103 414.6 950.21C414.867 950.317 415.093 950.467 415.28 950.66C415.467 950.847 415.61 951.077 415.71 951.35C415.81 951.617 415.86 951.917 415.86 952.25C415.86 952.643 415.793 952.99 415.66 953.29C415.527 953.59 415.34 953.84 415.1 954.04C414.867 954.24 414.59 954.39 414.27 954.49C413.95 954.59 413.6 954.64 413.22 954.64C412.92 954.64 412.633 954.613 412.36 954.56C412.093 954.513 411.867 954.447 411.68 954.36L412.03 953.28C412.183 953.347 412.35 953.4 412.53 953.44C412.717 953.473 412.94 953.49 413.2 953.49Z" fill="black"/>
</g>
</g>
</g>
<g id="Nutrition House [outline]">
<rect id="Nutrition House" x="561.696" y="1031.12" width="39" height="79" transform="rotate(-35 561.696 1031.12)" fill="#D9D9D9" stroke="#8C8C8C"/>
<g id="Label_9">
<g id="Label_10">
<circle id="Background_5" cx="600" cy="1052" r="8" fill="white" stroke="black"/>
<path id="Number_5" d="M595.336 1054.4L596.726 1054.4L596.726 1050.45L596.876 1049.77L596.396 1050.36L595.506 1050.97L594.956 1050.22L597.236 1048.38L597.966 1048.38L597.966 1054.4L599.326 1054.4L599.326 1055.5L595.336 1055.5L595.336 1054.4ZM605.53 1053.55L604.43 1053.55L604.43 1055.5L603.22 1055.5L603.22 1053.55L600.19 1053.55L600.19 1052.81L603.36 1048.45L604.43 1048.45L604.43 1052.51L605.53 1052.51L605.53 1053.55ZM603.22 1050.98L603.31 1050.14L603.27 1050.14L602.93 1050.86L601.89 1052.21L601.39 1052.59L602.03 1052.51L603.22 1052.51L603.22 1050.98Z" fill="black"/>
</g>
</g>
</g>
<g id="The Studio">
<g id="Base">
<rect id="The Studio_2" x="472.693" y="1008.77" width="39" height="79" transform="rotate(35 472.693 1008.77)" fill="#D9D9D9" stroke="#8C8C8C"/>
<g id="Critter Cave" opacity="0.5">
<mask id="path-38-inside-6_8_2" fill="white">
<path d="M443.892 1049.03L476.658 1071.97L459.451 1096.55L426.685 1073.6L443.892 1049.03Z"/>
</mask>
<path d="M443.318 1049.85L476.084 1072.79L477.232 1071.15L444.465 1048.21L443.318 1049.85Z" fill="#8C8C8C" mask="url(#path-38-inside-6_8_2)"/>
</g>
</g>
<g id="The Studio [outline]">
<g id="The Studio_3" style="mix-blend-mode:lighten">
<path d="M472.693 1008.77L504.64 1031.14L476.535 1071.28L444.588 1048.91L472.693 1008.77Z" fill="black"/>
<path d="M472.693 1008.77L504.64 1031.14L476.535 1071.28L444.588 1048.91L472.693 1008.77Z" stroke="black"/>
</g>
<g id="Label_11">
<g id="Label_12">
<circle id="Background_6" cx="474.614" cy="1040.02" r="8" fill="white" stroke="black"/>
<path id="Number_6" d="M469.95 1042.42L471.34 1042.42L471.34 1038.47L471.49 1037.79L471.01 1038.38L470.12 1038.99L469.57 1038.24L471.85 1036.4L472.58 1036.4L472.58 1042.42L473.94 1042.42L473.94 1043.52L469.95 1043.52L469.95 1042.42ZM477.024 1042.56C477.438 1042.56 477.751 1042.45 477.964 1042.23C478.184 1042.01 478.294 1041.75 478.294 1041.43C478.294 1041.05 478.181 1040.77 477.954 1040.59C477.728 1040.41 477.371 1040.32 476.884 1040.32L476.164 1040.32L476.164 1039.63L477.374 1037.98L477.944 1037.53L477.154 1037.62L475.474 1037.62L475.474 1036.52L479.294 1036.52L479.294 1037.23L477.884 1039.12L477.444 1039.39L477.444 1039.44L477.864 1039.38C478.098 1039.4 478.318 1039.46 478.524 1039.54C478.738 1039.63 478.921 1039.76 479.074 1039.92C479.234 1040.08 479.361 1040.28 479.454 1040.52C479.548 1040.76 479.594 1041.04 479.594 1041.35C479.594 1041.75 479.528 1042.09 479.394 1042.37C479.268 1042.66 479.088 1042.9 478.854 1043.09C478.628 1043.29 478.361 1043.43 478.054 1043.52C477.748 1043.62 477.418 1043.66 477.064 1043.66C476.771 1043.66 476.468 1043.64 476.154 1043.58C475.841 1043.53 475.588 1043.45 475.394 1043.35L475.744 1042.27C475.918 1042.36 476.108 1042.43 476.314 1042.48C476.528 1042.54 476.764 1042.56 477.024 1042.56Z" fill="black"/>
</g>
</g>
</g>
<g id="Leafers [outline]">
<g id="Leafers">
<rect id="Tree" x="467.614" y="1012.54" width="1" height="19" transform="rotate(35 467.614 1012.54)" fill="#CCB7A9" stroke="#CCB7A9"/>
<rect id="Tree_2" x="453.848" y="1032.2" width="1" height="19" transform="rotate(35 453.848 1032.2)" fill="#CCB7A9" stroke="#CCB7A9"/>
<rect id="Tree_3" x="440.082" y="1051.86" width="1" height="19" transform="rotate(35 440.082 1051.86)" fill="#CCB7A9" stroke="#CCB7A9"/>
</g>
<g id="Label_13">
<g id="Label_14">
<circle id="Background_7" cx="439.798" cy="1033.95" r="8" fill="white" stroke="black"/>
<path id="Number_7" d="M435.134 1036.35L436.524 1036.35L436.524 1032.4L436.674 1031.72L436.194 1032.31L435.304 1032.92L434.754 1032.17L437.034 1030.33L437.764 1030.33L437.764 1036.35L439.124 1036.35L439.124 1037.45L435.134 1037.45L435.134 1036.35ZM444.548 1032.16C444.548 1032.5 444.484 1032.85 444.358 1033.19C444.238 1033.54 444.081 1033.88 443.888 1034.21C443.701 1034.55 443.491 1034.87 443.258 1035.18C443.031 1035.49 442.808 1035.77 442.588 1036.03L442.058 1036.44L442.058 1036.49L442.778 1036.35L444.698 1036.35L444.698 1037.45L440.488 1037.45L440.488 1036.78C440.648 1036.62 440.828 1036.42 441.028 1036.2C441.228 1035.98 441.428 1035.74 441.628 1035.49C441.834 1035.24 442.034 1034.98 442.228 1034.71C442.421 1034.45 442.594 1034.18 442.748 1033.91C442.901 1033.64 443.021 1033.38 443.108 1033.12C443.201 1032.87 443.248 1032.63 443.248 1032.4C443.248 1032.13 443.168 1031.91 443.008 1031.73C442.854 1031.55 442.608 1031.46 442.268 1031.46C442.054 1031.46 441.834 1031.51 441.608 1031.6C441.388 1031.69 441.201 1031.8 441.048 1031.94L440.528 1031.02C440.788 1030.81 441.081 1030.64 441.408 1030.51C441.741 1030.38 442.131 1030.31 442.578 1030.31C442.864 1030.31 443.128 1030.35 443.368 1030.43C443.608 1030.51 443.814 1030.63 443.988 1030.78C444.161 1030.94 444.298 1031.13 444.398 1031.36C444.498 1031.59 444.548 1031.86 444.548 1032.16Z" fill="black"/>
</g>
</g>
</g>
<g id="Critter Cave [outline]">
<g id="Critter Cave_2" style="mix-blend-mode:lighten">
<rect x="444.015" y="1049.73" width="39" height="29" transform="rotate(35 444.015 1049.73)" fill="black"/>
<rect x="444.015" y="1049.73" width="39" height="29" transform="rotate(35 444.015 1049.73)" stroke="black"/>
</g>
<g id="Label_15">
<g id="Label_16">
<circle id="Background_8" cx="451.671" cy="1072.79" r="8" fill="white" stroke="black"/>
<path id="Number_8" d="M447.007 1075.19L448.397 1075.19L448.397 1071.24L448.547 1070.56L448.067 1071.15L447.177 1071.76L446.627 1071.01L448.907 1069.17L449.637 1069.17L449.637 1075.19L450.997 1075.19L450.997 1076.29L447.007 1076.29L447.007 1075.19ZM452.681 1075.19L454.071 1075.19L454.071 1071.24L454.221 1070.56L453.741 1071.15L452.851 1071.76L452.301 1071.01L454.581 1069.17L455.311 1069.17L455.311 1075.19L456.671 1075.19L456.671 1076.29L452.681 1076.29L452.681 1075.19Z" fill="black"/>
</g>
</g>
</g>
</g>
<g id="Well [outline]">
<rect id="Well" x="351.123" y="1111.7" width="19" height="19" transform="rotate(35 351.123 1111.7)" fill="#D9D9D9" stroke="#8C8C8C"/>
<g id="Label_17">
<g id="Label_18">
<circle id="Background_9" cx="353" cy="1125" r="8" fill="white" stroke="black"/>
<path id="Number_9" d="M348.336 1127.4L349.726 1127.4L349.726 1123.45L349.876 1122.77L349.396 1123.36L348.506 1123.97L347.956 1123.22L350.236 1121.38L350.966 1121.38L350.966 1127.4L352.326 1127.4L352.326 1128.5L348.336 1128.5L348.336 1127.4ZM353.4 1124.99C353.4 1123.76 353.61 1122.85 354.03 1122.26C354.45 1121.66 355.053 1121.36 355.84 1121.36C356.68 1121.36 357.297 1121.66 357.69 1122.25C358.083 1122.84 358.28 1123.75 358.28 1124.99C358.28 1126.22 358.067 1127.14 357.64 1127.74C357.22 1128.34 356.617 1128.64 355.83 1128.64C354.997 1128.64 354.383 1128.33 353.99 1127.7C353.597 1127.07 353.4 1126.16 353.4 1124.99ZM354.7 1124.99C354.7 1125.8 354.787 1126.43 354.96 1126.88C355.14 1127.32 355.433 1127.54 355.84 1127.54C356.233 1127.54 356.52 1127.34 356.7 1126.93C356.887 1126.52 356.98 1125.88 356.98 1124.99C356.98 1124.18 356.893 1123.56 356.72 1123.12C356.547 1122.68 356.25 1122.46 355.83 1122.46C355.43 1122.46 355.14 1122.67 354.96 1123.08C354.787 1123.49 354.7 1124.13 354.7 1124.99Z" fill="black"/>
</g>
</g>
</g>
<g id="Ella&#39;s House">
<g id="Base_2">
<g id="House">
<mask id="path-54-inside-7_8_2" fill="white">
<path fill-rule="evenodd" clip-rule="evenodd" d="M551 1131H511V1151H491V1211H571V1151H551V1131Z"/>
</mask>
<path fill-rule="evenodd" clip-rule="evenodd" d="M551 1131H511V1151H491V1211H571V1151H551V1131Z" fill="#D9D9D9"/>
<path d="M511 1131V1130H510V1131H511ZM551 1131H552V1130H551V1131ZM511 1151V1152H512V1151H511ZM491 1151V1150H490V1151H491ZM491 1211H490V1212H491V1211ZM571 1211V1212H572V1211H571ZM571 1151H572V1150H571V1151ZM551 1151H550V1152H551V1151ZM511 1132H551V1130H511V1132ZM512 1151V1131H510V1151H512ZM491 1152H511V1150H491V1152ZM492 1211V1151H490V1211H492ZM571 1210H491V1212H571V1210ZM570 1151V1211H572V1151H570ZM551 1152H571V1150H551V1152ZM550 1131V1151H552V1131H550Z" fill="#8C8C8C" mask="url(#path-54-inside-7_8_2)"/>
</g>
<rect id="Goats" opacity="0.5" x="491.5" y="1191.5" width="79" height="19" stroke="#8C8C8C"/>
</g>
<g id="Dogs [outline]">
<rect id="Dogs" x="571.5" y="1151.5" width="39" height="39" fill="#E5DCD5" stroke="#80726A"/>
<g id="Label_19">
<g id="Label_20">
<circle id="Background_10" cx="591" cy="1171" r="8" fill="white" stroke="black"/>
<path id="Number_10" d="M588.613 1169.69C588.613 1169.35 588.663 1169.04 588.763 1168.75C588.87 1168.46 589.02 1168.22 589.213 1168.02C589.413 1167.81 589.653 1167.65 589.933 1167.54C590.22 1167.42 590.546 1167.36 590.913 1167.36C591.666 1167.36 592.256 1167.59 592.683 1168.04C593.116 1168.49 593.333 1169.14 593.333 1170C593.333 1170.77 593.233 1171.44 593.033 1172.01C592.84 1172.57 592.576 1173.04 592.243 1173.42C591.916 1173.79 591.536 1174.08 591.103 1174.28C590.67 1174.48 590.213 1174.6 589.733 1174.64L589.453 1173.62C589.82 1173.57 590.146 1173.48 590.433 1173.35C590.72 1173.22 590.966 1173.05 591.173 1172.86C591.38 1172.66 591.546 1172.44 591.673 1172.19C591.806 1171.94 591.9 1171.67 591.953 1171.38C591.793 1171.55 591.62 1171.67 591.433 1171.74C591.253 1171.81 591.01 1171.84 590.703 1171.84C590.45 1171.84 590.196 1171.8 589.943 1171.71C589.696 1171.62 589.473 1171.49 589.273 1171.32C589.08 1171.14 588.92 1170.92 588.793 1170.65C588.673 1170.38 588.613 1170.06 588.613 1169.69ZM589.873 1169.62C589.873 1170 589.98 1170.29 590.193 1170.48C590.406 1170.67 590.673 1170.77 590.993 1170.77C591.266 1170.77 591.49 1170.73 591.663 1170.64C591.836 1170.55 591.97 1170.45 592.063 1170.32C592.083 1170.18 592.093 1170.05 592.093 1169.92C592.093 1169.73 592.07 1169.55 592.023 1169.37C591.976 1169.19 591.903 1169.03 591.803 1168.89C591.71 1168.75 591.586 1168.64 591.433 1168.56C591.286 1168.47 591.11 1168.43 590.903 1168.43C590.576 1168.43 590.323 1168.54 590.143 1168.75C589.963 1168.96 589.873 1169.25 589.873 1169.62Z" fill="black"/>
</g>
</g>
</g>
<g id="House [outline]">
<g id="House_2" style="mix-blend-mode:lighten">
<mask id="path-60-inside-8_8_2" fill="white">
<path fill-rule="evenodd" clip-rule="evenodd" d="M551 1131H511V1151H491V1191H571V1151H551V1131Z"/>
</mask>
<path fill-rule="evenodd" clip-rule="evenodd" d="M551 1131H511V1151H491V1191H571V1151H551V1131Z" fill="black"/>
<path d="M511 1131V1130H510V1131H511ZM551 1131H552V1130H551V1131ZM511 1151V1152H512V1151H511ZM491 1151V1150H490V1151H491ZM491 1191H490V1192H491V1191ZM571 1191V1192H572V1191H571ZM571 1151H572V1150H571V1151ZM551 1151H550V1152H551V1151ZM511 1132H551V1130H511V1132ZM512 1151V1131H510V1151H512ZM491 1152H511V1150H491V1152ZM492 1191V1151H490V1191H492ZM571 1190H491V1192H571V1190ZM570 1151V1191H572V1151H570ZM551 1152H571V1150H551V1152ZM550 1131V1151H552V1131H550Z" fill="black" mask="url(#path-60-inside-8_8_2)"/>
</g>
<g id="Label_21">
<g id="Label_22">
<circle id="Background_11" cx="531" cy="1171" r="8" fill="white" stroke="black"/>
<path id="Number_11" d="M528.773 1172.79C528.773 1172.56 528.803 1172.35 528.863 1172.17C528.923 1171.98 529.006 1171.82 529.113 1171.67C529.226 1171.52 529.356 1171.38 529.503 1171.26C529.656 1171.14 529.82 1171.03 529.993 1170.93C529.666 1170.72 529.41 1170.49 529.223 1170.22C529.036 1169.95 528.943 1169.61 528.943 1169.21C528.943 1168.95 528.99 1168.71 529.083 1168.48C529.183 1168.25 529.323 1168.06 529.503 1167.89C529.69 1167.72 529.913 1167.59 530.173 1167.5C530.433 1167.41 530.726 1167.36 531.053 1167.36C531.353 1167.36 531.626 1167.4 531.873 1167.48C532.12 1167.56 532.33 1167.67 532.503 1167.82C532.683 1167.97 532.82 1168.15 532.913 1168.36C533.013 1168.57 533.063 1168.8 533.063 1169.05C533.063 1169.44 532.973 1169.78 532.793 1170.05C532.62 1170.32 532.363 1170.57 532.023 1170.8C532.423 1171.03 532.723 1171.29 532.923 1171.57C533.13 1171.85 533.233 1172.21 533.233 1172.65C533.233 1172.95 533.176 1173.22 533.063 1173.47C532.956 1173.71 532.803 1173.92 532.603 1174.09C532.403 1174.26 532.163 1174.4 531.883 1174.5C531.603 1174.59 531.296 1174.64 530.963 1174.64C530.63 1174.64 530.326 1174.59 530.053 1174.5C529.786 1174.41 529.556 1174.29 529.363 1174.13C529.176 1173.97 529.03 1173.78 528.923 1173.55C528.823 1173.32 528.773 1173.07 528.773 1172.79ZM531.993 1172.66C531.993 1172.51 531.956 1172.37 531.883 1172.24C531.81 1172.11 531.713 1172 531.593 1171.9C531.48 1171.79 531.35 1171.7 531.203 1171.61C531.063 1171.52 530.92 1171.44 530.773 1171.36C530.46 1171.54 530.243 1171.74 530.123 1171.95C530.01 1172.16 529.953 1172.36 529.953 1172.57C529.953 1172.84 530.043 1173.07 530.223 1173.26C530.41 1173.45 530.666 1173.54 530.993 1173.54C531.293 1173.54 531.533 1173.47 531.713 1173.32C531.9 1173.17 531.993 1172.95 531.993 1172.66ZM530.183 1169.23C530.183 1169.39 530.213 1169.53 530.273 1169.65C530.333 1169.77 530.413 1169.88 530.513 1169.97C530.62 1170.06 530.736 1170.14 530.863 1170.22C530.996 1170.29 531.133 1170.36 531.273 1170.43C531.673 1170.09 531.873 1169.72 531.873 1169.31C531.873 1169.03 531.79 1168.82 531.623 1168.68C531.463 1168.53 531.266 1168.46 531.033 1168.46C530.74 1168.46 530.523 1168.54 530.383 1168.69C530.25 1168.84 530.183 1169.02 530.183 1169.23Z" fill="black"/>
</g>
</g>
</g>
<g id="Goats [outline]">
<g id="Goats_2" style="mix-blend-mode:lighten">
<rect x="491.5" y="1191.5" width="79" height="19" fill="black"/>
<rect x="491.5" y="1191.5" width="79" height="19" stroke="black"/>
</g>
<g id="Label_23">
<g id="Label_24">
<circle id="Background_12" cx="531" cy="1201" r="8" fill="white" stroke="black"/>
<path id="Number_12" d="M529.203 1204.5L531.493 1199.11L531.933 1198.62L531.333 1198.72H528.763V1197.5H533.273V1197.88L530.473 1204.5H529.203Z" fill="black"/>
</g>
</g>
</g>
</g>
<g id="Car Shelter [outline]">
<rect id="Car Shelter" x="411.5" y="1151.5" width="59" height="39" fill="#D9D9D9" stroke="#8C8C8C"/>
<g id="Label_25">
<g id="Label_26">
<circle id="Background_13" cx="441" cy="1171" r="8" fill="white" stroke="black"/>
<path id="Number_13" d="M443.363 1172.33C443.363 1172.66 443.306 1172.96 443.193 1173.24C443.086 1173.52 442.933 1173.76 442.733 1173.97C442.533 1174.18 442.29 1174.34 442.003 1174.46C441.723 1174.58 441.413 1174.64 441.073 1174.64C440.726 1174.64 440.406 1174.59 440.113 1174.48C439.826 1174.37 439.576 1174.2 439.363 1173.98C439.15 1173.76 438.983 1173.48 438.863 1173.15C438.743 1172.82 438.683 1172.43 438.683 1171.99C438.683 1171.33 438.776 1170.73 438.963 1170.2C439.156 1169.67 439.413 1169.2 439.733 1168.81C440.06 1168.41 440.436 1168.09 440.863 1167.85C441.296 1167.6 441.753 1167.44 442.233 1167.36L442.523 1168.39C442.19 1168.44 441.883 1168.55 441.603 1168.7C441.323 1168.85 441.073 1169.04 440.853 1169.25C440.64 1169.46 440.456 1169.7 440.303 1169.97C440.156 1170.23 440.053 1170.5 439.993 1170.78C440.126 1170.61 440.3 1170.47 440.513 1170.36C440.726 1170.24 440.993 1170.18 441.313 1170.18C441.613 1170.18 441.89 1170.23 442.143 1170.32C442.396 1170.41 442.613 1170.55 442.793 1170.74C442.973 1170.92 443.113 1171.14 443.213 1171.41C443.313 1171.68 443.363 1171.98 443.363 1172.33ZM442.103 1172.4C442.103 1171.65 441.736 1171.28 441.003 1171.28C440.736 1171.28 440.51 1171.34 440.323 1171.46C440.143 1171.58 440.016 1171.72 439.943 1171.88C439.93 1171.95 439.923 1172.02 439.923 1172.07C439.923 1172.12 439.923 1172.18 439.923 1172.23C439.923 1172.39 439.946 1172.55 439.993 1172.71C440.04 1172.86 440.106 1173 440.193 1173.13C440.286 1173.25 440.403 1173.35 440.543 1173.43C440.683 1173.5 440.85 1173.54 441.043 1173.54C441.356 1173.54 441.61 1173.43 441.803 1173.22C442.003 1173.01 442.103 1172.73 442.103 1172.4Z" fill="black"/>
</g>
</g>
</g>
<g id="Training Center [outline]">
<g id="Training Center">
<mask id="path-70-inside-9_8_2" fill="white">
<path fill-rule="evenodd" clip-rule="evenodd" d="M611 1371H491V1401H471V1421H491V1451H611V1371Z"/>
</mask>
<path fill-rule="evenodd" clip-rule="evenodd" d="M611 1371H491V1401H471V1421H491V1451H611V1371Z" fill="#D9D9D9"/>
<path d="M491 1371V1370H490V1371H491ZM611 1371H612V1370H611V1371ZM491 1401V1402H492V1401H491ZM471 1401V1400H470V1401H471ZM471 1421H470V1422H471V1421ZM491 1421H492V1420H491V1421ZM491 1451H490V1452H491V1451ZM611 1451V1452H612V1451H611ZM491 1372H611V1370H491V1372ZM492 1401V1371H490V1401H492ZM471 1402H491V1400H471V1402ZM472 1421V1401H470V1421H472ZM491 1420H471V1422H491V1420ZM492 1451V1421H490V1451H492ZM611 1450H491V1452H611V1450ZM610 1371V1451H612V1371H610Z" fill="#8C8C8C" mask="url(#path-70-inside-9_8_2)"/>
</g>
<g id="Label_27">
<g id="Label_28">
<circle id="Background_14" cx="551" cy="1411" r="8" fill="white" stroke="black"/>
<path id="Number_14" d="M550.363 1413.49C550.803 1413.49 551.14 1413.38 551.373 1413.17C551.606 1412.96 551.723 1412.66 551.723 1412.29C551.723 1411.89 551.586 1411.6 551.313 1411.41C551.04 1411.22 550.65 1411.13 550.143 1411.13L549.353 1411.16V1407.5H552.793V1408.72H550.473V1410.07L550.883 1410.03C551.21 1410.04 551.503 1410.1 551.763 1410.21C552.03 1410.32 552.256 1410.47 552.443 1410.66C552.63 1410.85 552.773 1411.08 552.873 1411.35C552.973 1411.62 553.023 1411.92 553.023 1412.25C553.023 1412.64 552.956 1412.99 552.823 1413.29C552.69 1413.59 552.503 1413.84 552.263 1414.04C552.03 1414.24 551.753 1414.39 551.433 1414.49C551.113 1414.59 550.763 1414.64 550.383 1414.64C550.083 1414.64 549.796 1414.61 549.523 1414.56C549.256 1414.51 549.03 1414.45 548.843 1414.36L549.193 1413.28C549.346 1413.35 549.513 1413.4 549.693 1413.44C549.88 1413.47 550.103 1413.49 550.363 1413.49Z" fill="black"/>
</g>
</g>
</g>
<g id="Purple Martin Houses [outline]">
<g id="Purple Martin Houses">
<circle id="Bird House" cx="574" cy="1484" r="3.5" fill="white" stroke="#D9D9D9"/>
<circle id="Bird House_2" cx="584" cy="1494" r="3.5" fill="white" stroke="#D9D9D9"/>
<circle id="Bird House_3" cx="594" cy="1484" r="3.5" fill="white" stroke="#D9D9D9"/>
<circle id="Bird House_4" cx="584" cy="1474" r="3.5" fill="white" stroke="#D9D9D9"/>
<g id="Stand">
<mask id="path-78-inside-10_8_2" fill="white">
<path fill-rule="evenodd" clip-rule="evenodd" d="M585 1476H583V1483H576V1485H583V1492H585V1485H592V1483H585V1476Z"/>
</mask>
<path fill-rule="evenodd" clip-rule="evenodd" d="M585 1476H583V1483H576V1485H583V1492H585V1485H592V1483H585V1476Z" fill="#D9D9D9"/>
<path d="M583 1476V1475H582V1476H583ZM585 1476H586V1475H585V1476ZM583 1483V1484H584V1483H583ZM576 1483V1482H575V1483H576ZM576 1485H575V1486H576V1485ZM583 1485H584V1484H583V1485ZM583 1492H582V1493H583V1492ZM585 1492V1493H586V1492H585ZM585 1485V1484H584V1485H585ZM592 1485V1486H593V1485H592ZM592 1483H593V1482H592V1483ZM585 1483H584V1484H585V1483ZM583 1477H585V1475H583V1477ZM584 1483V1476H582V1483H584ZM576 1484H583V1482H576V1484ZM577 1485V1483H575V1485H577ZM583 1484H576V1486H583V1484ZM584 1492V1485H582V1492H584ZM585 1491H583V1493H585V1491ZM584 1485V1492H586V1485H584ZM592 1484H585V1486H592V1484ZM591 1483V1485H593V1483H591ZM585 1484H592V1482H585V1484ZM584 1476V1483H586V1476H584Z" fill="#D9D9D9" mask="url(#path-78-inside-10_8_2)"/>
</g>
</g>
<g id="Label_29">
<g id="Label_30">
<circle id="Background_15" cx="612" cy="1484" r="8" fill="white" stroke="black"/>
<path id="Number_15" d="M614.693 1485.55H613.593V1487.5H612.383V1485.55H609.353V1484.81L612.523 1480.45H613.593V1484.51H614.693V1485.55ZM612.383 1482.98L612.473 1482.14H612.433L612.093 1482.86L611.053 1484.21L610.553 1484.59L611.193 1484.51H612.383V1482.98Z" fill="black"/>
</g>
</g>
</g>
<g id="Chickens [outline]">
<g id="Chickens">
<mask id="path-82-inside-11_8_2" fill="white">
<path fill-rule="evenodd" clip-rule="evenodd" d="M36 1431H16V1471H11V1501H41V1471H36V1431Z"/>
</mask>
<path fill-rule="evenodd" clip-rule="evenodd" d="M36 1431H16V1471H11V1501H41V1471H36V1431Z" fill="#D9D9D9"/>
<path d="M16 1431V1430H15V1431H16ZM36 1431H37V1430H36V1431ZM16 1471V1472H17V1471H16ZM11 1471V1470H10V1471H11ZM11 1501H10V1502H11V1501ZM41 1501V1502H42V1501H41ZM41 1471H42V1470H41V1471ZM36 1471H35V1472H36V1471ZM16 1432H36V1430H16V1432ZM17 1471V1431H15V1471H17ZM11 1472H16V1470H11V1472ZM12 1501V1471H10V1501H12ZM41 1500H11V1502H41V1500ZM40 1471V1501H42V1471H40ZM36 1472H41V1470H36V1472ZM35 1431V1471H37V1431H35Z" fill="#8C8C8C" mask="url(#path-82-inside-11_8_2)"/>
</g>
<rect id="Chicken Coup" opacity="0.5" x="11.5" y="1471.5" width="29" height="29" stroke="#8C8C8C"/>
<g id="Label_31">
<g id="Label_32">
<circle id="Background_16" cx="26" cy="1486" r="8" fill="white" stroke="black"/>
<path id="Number_16" d="M25.5731 1488.54C25.9864 1488.54 26.2998 1488.43 26.5131 1488.21C26.7331 1487.99 26.8431 1487.72 26.8431 1487.41C26.8431 1487.03 26.7298 1486.75 26.5031 1486.57C26.2764 1486.39 25.9198 1486.3 25.4331 1486.3H24.7131V1485.61L25.9231 1483.96L26.4931 1483.51L25.7031 1483.6H24.0231V1482.5H27.8431V1483.21L26.4331 1485.1L25.9931 1485.37V1485.42L26.4131 1485.36C26.6464 1485.38 26.8664 1485.43 27.0731 1485.52C27.2864 1485.61 27.4698 1485.73 27.6231 1485.9C27.7831 1486.06 27.9098 1486.26 28.0031 1486.5C28.0964 1486.74 28.1431 1487.02 28.1431 1487.33C28.1431 1487.72 28.0764 1488.06 27.9431 1488.35C27.8164 1488.64 27.6364 1488.88 27.4031 1489.07C27.1764 1489.26 26.9098 1489.41 26.6031 1489.5C26.2964 1489.59 25.9664 1489.64 25.6131 1489.64C25.3198 1489.64 25.0164 1489.61 24.7031 1489.56C24.3898 1489.51 24.1364 1489.43 23.9431 1489.33L24.2931 1488.25C24.4664 1488.34 24.6564 1488.41 24.8631 1488.46C25.0764 1488.51 25.3131 1488.54 25.5731 1488.54Z" fill="black"/>
</g>
</g>
</g>
<g id="Parrots [outline]">
<g id="Parrots">
<mask id="path-87-inside-12_8_2" fill="white">
<path fill-rule="evenodd" clip-rule="evenodd" d="M61 1491H81V1511H101V1571H41H21V1511H41H61V1491Z"/>
</mask>
<path fill-rule="evenodd" clip-rule="evenodd" d="M61 1491H81V1511H101V1571H41H21V1511H41H61V1491Z" fill="#D9D9D9"/>
<path d="M81 1491H82V1490H81V1491ZM61 1491V1490H60V1491H61ZM81 1511H80V1512H81V1511ZM101 1511H102V1510H101V1511ZM101 1571V1572H102V1571H101ZM21 1571H20V1572H21V1571ZM21 1511V1510H20V1511H21ZM61 1511V1512H62V1511H61ZM81 1490H61V1492H81V1490ZM82 1511V1491H80V1511H82ZM101 1510H81V1512H101V1510ZM102 1571V1511H100V1571H102ZM41 1572H101V1570H41V1572ZM41 1570H21V1572H41V1570ZM22 1571V1511H20V1571H22ZM21 1512H41V1510H21V1512ZM61 1510H41V1512H61V1510ZM60 1491V1511H62V1491H60Z" fill="#8C8C8C" mask="url(#path-87-inside-12_8_2)"/>
</g>
<g id="Parrot House" opacity="0.5">
<mask id="path-89-inside-13_8_2" fill="white">
<path d="M21 1511H41V1571H21V1511Z"/>
</mask>
<path d="M40 1511V1571H42V1511H40Z" fill="#8C8C8C" mask="url(#path-89-inside-13_8_2)"/>
</g>
<g id="Label_33">
<g id="Label_34">
<circle id="Background_17" cx="61" cy="1541" r="8" fill="white" stroke="black"/>
<path id="Number_17" d="M62.9131 1539.21C62.9131 1539.55 62.8498 1539.89 62.7231 1540.24C62.6031 1540.59 62.4464 1540.93 62.2531 1541.26C62.0664 1541.59 61.8564 1541.92 61.6231 1542.23C61.3964 1542.54 61.1731 1542.82 60.9531 1543.08L60.4231 1543.49V1543.54L61.1431 1543.4H63.0631V1544.5H58.8531V1543.83C59.0131 1543.66 59.1931 1543.47 59.3931 1543.25C59.5931 1543.02 59.7931 1542.79 59.9931 1542.54C60.1998 1542.29 60.3998 1542.03 60.5931 1541.76C60.7864 1541.49 60.9598 1541.23 61.1131 1540.96C61.2664 1540.69 61.3864 1540.42 61.4731 1540.17C61.5664 1539.92 61.6131 1539.68 61.6131 1539.45C61.6131 1539.18 61.5331 1538.95 61.3731 1538.78C61.2198 1538.6 60.9731 1538.51 60.6331 1538.51C60.4198 1538.51 60.1998 1538.56 59.9731 1538.65C59.7531 1538.74 59.5664 1538.85 59.4131 1538.99L58.8931 1538.07C59.1531 1537.86 59.4464 1537.69 59.7731 1537.56C60.1064 1537.43 60.4964 1537.36 60.9431 1537.36C61.2298 1537.36 61.4931 1537.4 61.7331 1537.48C61.9731 1537.56 62.1798 1537.68 62.3531 1537.83C62.5264 1537.98 62.6631 1538.18 62.7631 1538.41C62.8631 1538.64 62.9131 1538.9 62.9131 1539.21Z" fill="black"/>
</g>
</g>
</g>
<g id="Pasture [outline]">
<path id="Pasture" d="M449.745 2121.82C450.022 2122.24 450.494 2122.5 451 2122.5H641C641.829 2122.5 642.5 2121.83 642.5 2121V1531C642.5 1530.17 641.829 1529.5 641 1529.5H491.214L251.42 1459.56C250.875 1459.4 250.287 1459.56 249.901 1459.98L184.901 1529.98C184.643 1530.26 184.5 1530.62 184.5 1531V1716C184.5 1716.29 184.585 1716.58 184.745 1716.82L449.745 2121.82Z" fill="#B9B5A4" stroke="#80726A" stroke-width="3" stroke-linejoin="round"/>
<rect id="Pasture Barn" x="561.5" y="1531.5" width="79" height="39" fill="#D9D9D9" stroke="#8C8C8C"/>
<g id="Label_35">
<g id="Label_36">
<circle id="Background_18" cx="413.5" cy="1796" r="8" fill="white" stroke="black"/>
<path id="Number_18" d="M411.673 1798.4H413.063V1794.45L413.213 1793.77L412.733 1794.36L411.843 1794.97L411.293 1794.22L413.573 1792.38H414.303V1798.4H415.663V1799.5H411.673V1798.4Z" fill="black"/>
</g>
</g>
</g>
</g>
<g id="Birds" opacity="0.25">
<path id="Vector" d="M392.323 1612.32C393.721 1610.93 393.575 1608.1 393.575 1608.1C393.575 1608.1 387.424 1604.85 386.417 1602.95C385.41 1601.05 385.851 1594.06 391.866 1591.18C395.68 1589.35 406.53 1581.98 405.98 1581.21C405.43 1580.43 392.4 1581.99 387.999 1583.51C383.597 1585.03 381.832 1587.97 380.447 1591.7C379.062 1595.44 376.521 1594.17 375.907 1593.45C375.293 1592.72 373.728 1592.5 372.441 1592.44C372.497 1593.73 372.721 1595.29 373.449 1595.91C374.177 1596.52 375.437 1599.06 371.703 1600.45C367.968 1601.83 365.034 1603.6 363.511 1608C361.988 1612.4 360.43 1625.43 361.206 1625.98C361.982 1626.53 369.353 1615.68 371.182 1611.86C374.065 1605.85 381.053 1605.41 382.954 1606.42C384.854 1607.42 388.097 1613.57 388.097 1613.57C388.097 1613.57 390.925 1613.72 392.323 1612.32Z" fill="black"/>
<path id="Vector_2" d="M308.844 1643.84C310.087 1642.6 309.956 1640.08 309.956 1640.08C309.956 1640.08 304.49 1637.2 303.595 1635.51C302.701 1633.82 303.09 1627.61 308.438 1625.05C311.828 1623.42 321.471 1616.87 320.982 1616.18C320.493 1615.49 308.913 1616.88 305 1618.23C301.086 1619.59 299.52 1622.19 298.287 1625.51C297.054 1628.83 294.798 1627.71 294.25 1627.06C293.702 1626.42 292.311 1626.22 291.169 1626.17C291.22 1627.31 291.419 1628.71 292.064 1629.25C292.711 1629.8 293.831 1632.05 290.514 1633.29C287.196 1634.52 284.588 1636.09 283.232 1640C281.878 1643.91 280.495 1655.49 281.182 1655.98C281.87 1656.47 288.424 1646.83 290.049 1643.44C292.612 1638.09 298.822 1637.7 300.511 1638.6C302.201 1639.49 305.083 1644.96 305.083 1644.96C305.083 1644.96 307.603 1645.08 308.844 1643.84Z" fill="black"/>
<path id="Vector_3" d="M255.363 1625.37C256.45 1624.28 256.335 1622.08 256.335 1622.08C256.335 1622.08 251.551 1619.55 250.768 1618.08C249.984 1616.6 250.326 1611.16 255.007 1608.92C257.974 1607.49 266.412 1601.76 265.984 1601.16C265.557 1600.56 255.423 1601.77 251.999 1602.95C248.575 1604.14 247.203 1606.42 246.127 1609.33C245.048 1612.23 243.073 1611.25 242.594 1610.68C242.115 1610.12 240.898 1609.94 239.899 1609.9C239.942 1610.9 240.117 1612.12 240.683 1612.59C241.248 1613.07 242.229 1615.05 239.325 1616.13C236.421 1617.21 234.139 1618.57 232.954 1622C231.768 1625.42 230.557 1635.56 231.16 1635.98C231.763 1636.41 237.497 1627.97 238.917 1625.01C241.162 1620.33 246.595 1619.99 248.076 1620.77C249.554 1621.55 252.076 1626.34 252.076 1626.34C252.076 1626.34 254.275 1626.45 255.363 1625.37Z" fill="black"/>
<path id="Vector_4" d="M345.363 1575.37C346.45 1574.28 346.335 1572.08 346.335 1572.08C346.335 1572.08 341.551 1569.55 340.768 1568.08C339.984 1566.6 340.326 1561.16 345.007 1558.92C347.974 1557.49 356.412 1551.76 355.984 1551.16C355.557 1550.56 345.423 1551.77 341.999 1552.95C338.575 1554.14 337.203 1556.42 336.127 1559.33C335.048 1562.23 333.073 1561.25 332.594 1560.68C332.115 1560.12 330.898 1559.94 329.899 1559.9C329.942 1560.9 330.117 1562.12 330.683 1562.59C331.248 1563.07 332.229 1565.05 329.325 1566.13C326.421 1567.21 324.139 1568.57 322.954 1572C321.768 1575.42 320.557 1585.56 321.16 1585.98C321.763 1586.41 327.497 1577.97 328.917 1575.01C331.162 1570.33 336.595 1569.99 338.076 1570.77C339.554 1571.55 342.076 1576.34 342.076 1576.34C342.076 1576.34 344.278 1576.45 345.363 1575.37Z" fill="black"/>
<path id="Vector_5" d="M285.805 1575.81C287.357 1574.25 287.195 1571.11 287.195 1571.11C287.195 1571.11 280.361 1567.5 279.244 1565.39C278.125 1563.28 278.615 1555.52 285.298 1552.31C289.535 1550.28 301.59 1542.09 300.978 1541.23C300.366 1540.37 285.892 1542.1 280.999 1543.79C276.106 1545.48 274.148 1548.74 272.608 1552.89C271.068 1557.04 268.246 1555.64 267.564 1554.83C266.883 1554.03 265.142 1553.78 263.712 1553.71C263.773 1555.14 264.023 1556.88 264.832 1557.56C265.638 1558.25 267.042 1561.07 262.892 1562.61C258.744 1564.15 255.484 1566.11 253.79 1571C252.096 1575.89 250.367 1590.37 251.229 1590.98C252.09 1591.59 260.281 1579.54 262.311 1575.3C265.516 1568.61 273.278 1568.12 275.393 1569.24C277.507 1570.36 281.106 1577.19 281.106 1577.19C281.106 1577.19 284.253 1577.36 285.805 1575.81Z" fill="black"/>
</g>
</g>
<path d="M1 1V0H0V1H1ZM651 1H652V0H651V1ZM651 2151V2152H652V2151H651ZM1 2151H0V2152H1V2151ZM1 2H651V0H1V2ZM650 1V2151H652V1H650ZM651 2150H1V2152H651V2150ZM2 2151V1H0V2151H2Z" fill="#A6B2A0"/>
</g>
<defs>
<clipPath id="clip0_8_2">
<path d="M1 1H651V2151H1V1Z" fill="white"/>
</clipPath>
</defs>
</svg>
