<svg width="650" height="2150" viewBox="0 0 650 2150" fill="none" xmlns="http://www.w3.org/2000/svg">
<g id="Map" clip-path="url(#clip0_8_2)">
<rect width="650" height="2150" fill="#FFF4EC"/>
<g id="Paths">
<path id="Pasture Path" d="M540 1530V1490L516 1470H450V1370L480 1320V1060" stroke="#CCB7A9" stroke-width="10" stroke-linecap="round" stroke-linejoin="round"/>
<path id="Parrots Path" d="M230 1490L190 1460H70" stroke="#CCB7A9" stroke-width="10" stroke-linecap="round" stroke-linejoin="round"/>
<path id="Core Path" d="M480 1110H530M530 1110V1130M530 1110H570V1070M570 1070L585 1060M570 1070L550 1060H480" stroke="#CCB7A9" stroke-width="10" stroke-linecap="round" stroke-linejoin="round"/>
<path id="Barn Path" d="M530 1060V950M530 950H460M530 950V920L480 880H370" stroke="#CCB7A9" stroke-width="10" stroke-linecap="round" stroke-linejoin="round"/>
<path id="Well Path" d="M420 1210L290 1110" stroke="#CCB7A9" stroke-width="10" stroke-linecap="round" stroke-linejoin="round"/>
<path id="Fox Path" d="M210 10H290" stroke="#CCB7A9" stroke-width="10" stroke-linecap="round" stroke-linejoin="round"/>
<path id="Fork Path" d="M290 730H110L60 680" stroke="#CCB7A9" stroke-width="10" stroke-linecap="round" stroke-linejoin="round"/>
</g>
<g id="Roads">
<path id="Entrance Road" d="M420 2150V2130L150 1720V1510L450 1170" stroke="#80726A" stroke-width="20" stroke-linecap="round" stroke-linejoin="round"/>
<path id="Secondary Road" d="M290 1350V970L390 850L290 730V0" stroke="#80726A" stroke-width="20" stroke-linecap="round" stroke-linejoin="round"/>
</g>
<g id="Trees">
<path id="Trees_2" d="M390 2150H0V1590H110V1730L390 2150Z" fill="#A6B2A0"/>
<path id="Trees_3" d="M180 1400H0V0H150V190H260V380H150V500H260V695H124.5L75 645L35 655L25 695L95 765H260L330 850L240 960V1335L180 1400Z" fill="#A6B2A0"/>
<path id="Trees_4" d="M320 550V0H650V990H560V910L490 850H440L320 710V670H430V550H320Z" fill="#A6B2A0"/>
</g>
<g id="Pasture">
<path id="Pasture [outline]" d="M448.745 2120.82C449.022 2121.24 449.494 2121.5 450 2121.5H640C640.829 2121.5 641.5 2120.83 641.5 2120V1530C641.5 1529.17 640.829 1528.5 640 1528.5H490.214L250.42 1458.56C249.875 1458.4 249.287 1458.56 248.901 1458.98L183.901 1528.98C183.643 1529.26 183.5 1529.62 183.5 1530V1715C183.5 1715.29 183.585 1715.58 183.745 1715.82L448.745 2120.82Z" fill="#B9B5A4" stroke="#80726A" stroke-width="3" stroke-linejoin="round"/>
<rect id="Pasture Barn" x="560.5" y="1530.5" width="79" height="39" fill="#D9D9D9" stroke="#8C8C8C"/>
<g id="Label">
<g id="Label_2">
<circle id="Background" cx="412.5" cy="1795" r="8" fill="white" stroke="black"/>
<path id="Number" d="M410.673 1797.4H412.063V1793.45L412.213 1792.77L411.733 1793.36L410.843 1793.97L410.293 1793.22L412.573 1791.38H413.303V1797.4H414.663V1798.5H410.673V1797.4Z" fill="black"/>
</g>
</g>
</g>
<g id="Parrots">
<g id="Parrots [outline]">
<mask id="path-17-inside-1_8_2" fill="white">
<path fill-rule="evenodd" clip-rule="evenodd" d="M60 1490H80V1510H100V1570H40H20V1510H40H60V1490Z"/>
</mask>
<path fill-rule="evenodd" clip-rule="evenodd" d="M60 1490H80V1510H100V1570H40H20V1510H40H60V1490Z" fill="#D9D9D9"/>
<path d="M80 1490H81V1489H80V1490ZM60 1490V1489H59V1490H60ZM80 1510H79V1511H80V1510ZM100 1510H101V1509H100V1510ZM100 1570V1571H101V1570H100ZM20 1570H19V1571H20V1570ZM20 1510V1509H19V1510H20ZM60 1510V1511H61V1510H60ZM80 1489H60V1491H80V1489ZM81 1510V1490H79V1510H81ZM100 1509H80V1511H100V1509ZM101 1570V1510H99V1570H101ZM40 1571H100V1569H40V1571ZM40 1569H20V1571H40V1569ZM21 1570V1510H19V1570H21ZM20 1511H40V1509H20V1511ZM60 1509H40V1511H60V1509ZM59 1490V1510H61V1490H59Z" fill="#8C8C8C" mask="url(#path-17-inside-1_8_2)"/>
</g>
<g id="Parrot House" opacity="0.5">
<mask id="path-19-inside-2_8_2" fill="white">
<path d="M20 1510H40V1570H20V1510Z"/>
</mask>
<path d="M39 1510V1570H41V1510H39Z" fill="#8C8C8C" mask="url(#path-19-inside-2_8_2)"/>
</g>
<g id="Label_3">
<g id="Label_4">
<circle id="Background_2" cx="60" cy="1540" r="8" fill="white" stroke="black"/>
<path id="Number_2" d="M61.9131 1538.21C61.9131 1538.55 61.8498 1538.89 61.7231 1539.24C61.6031 1539.59 61.4464 1539.93 61.2531 1540.26C61.0664 1540.59 60.8564 1540.92 60.6231 1541.23C60.3964 1541.54 60.1731 1541.82 59.9531 1542.08L59.4231 1542.49V1542.54L60.1431 1542.4H62.0631V1543.5H57.8531V1542.83C58.0131 1542.66 58.1931 1542.47 58.3931 1542.25C58.5931 1542.02 58.7931 1541.79 58.9931 1541.54C59.1998 1541.29 59.3998 1541.03 59.5931 1540.76C59.7864 1540.49 59.9598 1540.23 60.1131 1539.96C60.2664 1539.69 60.3864 1539.42 60.4731 1539.17C60.5664 1538.92 60.6131 1538.68 60.6131 1538.45C60.6131 1538.18 60.5331 1537.95 60.3731 1537.78C60.2198 1537.6 59.9731 1537.51 59.6331 1537.51C59.4198 1537.51 59.1998 1537.56 58.9731 1537.65C58.7531 1537.74 58.5664 1537.85 58.4131 1537.99L57.8931 1537.07C58.1531 1536.86 58.4464 1536.69 58.7731 1536.56C59.1064 1536.43 59.4964 1536.36 59.9431 1536.36C60.2298 1536.36 60.4931 1536.4 60.7331 1536.48C60.9731 1536.56 61.1798 1536.68 61.3531 1536.83C61.5264 1536.98 61.6631 1537.18 61.7631 1537.41C61.8631 1537.64 61.9131 1537.9 61.9131 1538.21Z" fill="black"/>
</g>
</g>
</g>
<g id="Chickens">
<g id="Chickens [outline]">
<mask id="path-23-inside-3_8_2" fill="white">
<path fill-rule="evenodd" clip-rule="evenodd" d="M35 1430H15V1470H10V1500H40V1470H35V1430Z"/>
</mask>
<path fill-rule="evenodd" clip-rule="evenodd" d="M35 1430H15V1470H10V1500H40V1470H35V1430Z" fill="#D9D9D9"/>
<path d="M15 1430V1429H14V1430H15ZM35 1430H36V1429H35V1430ZM15 1470V1471H16V1470H15ZM10 1470V1469H9V1470H10ZM10 1500H9V1501H10V1500ZM40 1500V1501H41V1500H40ZM40 1470H41V1469H40V1470ZM35 1470H34V1471H35V1470ZM15 1431H35V1429H15V1431ZM16 1470V1430H14V1470H16ZM10 1471H15V1469H10V1471ZM11 1500V1470H9V1500H11ZM40 1499H10V1501H40V1499ZM39 1470V1500H41V1470H39ZM35 1471H40V1469H35V1471ZM34 1430V1470H36V1430H34Z" fill="#8C8C8C" mask="url(#path-23-inside-3_8_2)"/>
</g>
<rect id="Chicken Coup" opacity="0.5" x="10.5" y="1470.5" width="29" height="29" stroke="#8C8C8C"/>
<g id="Label_5">
<g id="Label_6">
<circle id="Background_3" cx="25" cy="1485" r="8" fill="white" stroke="black"/>
<path id="Number_3" d="M24.5731 1487.54C24.9864 1487.54 25.2998 1487.43 25.5131 1487.21C25.7331 1486.99 25.8431 1486.72 25.8431 1486.41C25.8431 1486.03 25.7298 1485.75 25.5031 1485.57C25.2764 1485.39 24.9198 1485.3 24.4331 1485.3H23.7131V1484.61L24.9231 1482.96L25.4931 1482.51L24.7031 1482.6H23.0231V1481.5H26.8431V1482.21L25.4331 1484.1L24.9931 1484.37V1484.42L25.4131 1484.36C25.6464 1484.38 25.8664 1484.43 26.0731 1484.52C26.2864 1484.61 26.4698 1484.73 26.6231 1484.9C26.7831 1485.06 26.9098 1485.26 27.0031 1485.5C27.0964 1485.74 27.1431 1486.02 27.1431 1486.33C27.1431 1486.72 27.0764 1487.06 26.9431 1487.35C26.8164 1487.64 26.6364 1487.88 26.4031 1488.07C26.1764 1488.26 25.9098 1488.41 25.6031 1488.5C25.2964 1488.59 24.9664 1488.64 24.6131 1488.64C24.3198 1488.64 24.0164 1488.61 23.7031 1488.56C23.3898 1488.51 23.1364 1488.43 22.9431 1488.33L23.2931 1487.25C23.4664 1487.34 23.6564 1487.41 23.8631 1487.46C24.0764 1487.51 24.3131 1487.54 24.5731 1487.54Z" fill="black"/>
</g>
</g>
</g>
<g id="Training Center">
<g id="Training Center [outline]">
<mask id="path-28-inside-4_8_2" fill="white">
<path fill-rule="evenodd" clip-rule="evenodd" d="M610 1370H490V1400H470V1420H490V1450H610V1370Z"/>
</mask>
<path fill-rule="evenodd" clip-rule="evenodd" d="M610 1370H490V1400H470V1420H490V1450H610V1370Z" fill="#D9D9D9"/>
<path d="M490 1370V1369H489V1370H490ZM610 1370H611V1369H610V1370ZM490 1400V1401H491V1400H490ZM470 1400V1399H469V1400H470ZM470 1420H469V1421H470V1420ZM490 1420H491V1419H490V1420ZM490 1450H489V1451H490V1450ZM610 1450V1451H611V1450H610ZM490 1371H610V1369H490V1371ZM491 1400V1370H489V1400H491ZM470 1401H490V1399H470V1401ZM471 1420V1400H469V1420H471ZM490 1419H470V1421H490V1419ZM491 1450V1420H489V1450H491ZM610 1449H490V1451H610V1449ZM609 1370V1450H611V1370H609Z" fill="#8C8C8C" mask="url(#path-28-inside-4_8_2)"/>
</g>
<g id="Label_7">
<g id="Label_8">
<circle id="Background_4" cx="550" cy="1410" r="8" fill="white" stroke="black"/>
<path id="Number_4" d="M552.693 1411.55H551.593V1413.5H550.383V1411.55H547.353V1410.81L550.523 1406.45H551.593V1410.51H552.693V1411.55ZM550.383 1408.98L550.473 1408.14H550.433L550.093 1408.86L549.053 1410.21L548.553 1410.59L549.193 1410.51H550.383V1408.98Z" fill="black"/>
</g>
</g>
</g>
<g id="Car Shelter">
<rect id="Car Shelter [outline]" x="410.5" y="1150.5" width="59" height="39" fill="#D9D9D9" stroke="#8C8C8C"/>
<g id="Label_9">
<g id="Label_10">
<circle id="Background_5" cx="440" cy="1170" r="8" fill="white" stroke="black"/>
<path id="Number_5" d="M439.363 1172.49C439.803 1172.49 440.14 1172.38 440.373 1172.17C440.606 1171.96 440.723 1171.66 440.723 1171.29C440.723 1170.89 440.586 1170.6 440.313 1170.41C440.04 1170.22 439.65 1170.13 439.143 1170.13L438.353 1170.16V1166.5H441.793V1167.72H439.473V1169.07L439.883 1169.03C440.21 1169.04 440.503 1169.1 440.763 1169.21C441.03 1169.32 441.256 1169.47 441.443 1169.66C441.63 1169.85 441.773 1170.08 441.873 1170.35C441.973 1170.62 442.023 1170.92 442.023 1171.25C442.023 1171.64 441.956 1171.99 441.823 1172.29C441.69 1172.59 441.503 1172.84 441.263 1173.04C441.03 1173.24 440.753 1173.39 440.433 1173.49C440.113 1173.59 439.763 1173.64 439.383 1173.64C439.083 1173.64 438.796 1173.61 438.523 1173.56C438.256 1173.51 438.03 1173.45 437.843 1173.36L438.193 1172.28C438.346 1172.35 438.513 1172.4 438.693 1172.44C438.88 1172.47 439.103 1172.49 439.363 1172.49Z" fill="black"/>
</g>
</g>
</g>
<g id="Ella&#39;s House">
<g id="Base">
<g id="House">
<mask id="path-35-inside-5_8_2" fill="white">
<path fill-rule="evenodd" clip-rule="evenodd" d="M550 1130H510V1150H490V1210H570V1150H550V1130Z"/>
</mask>
<path fill-rule="evenodd" clip-rule="evenodd" d="M550 1130H510V1150H490V1210H570V1150H550V1130Z" fill="#D9D9D9"/>
<path d="M510 1130V1129H509V1130H510ZM550 1130H551V1129H550V1130ZM510 1150V1151H511V1150H510ZM490 1150V1149H489V1150H490ZM490 1210H489V1211H490V1210ZM570 1210V1211H571V1210H570ZM570 1150H571V1149H570V1150ZM550 1150H549V1151H550V1150ZM510 1131H550V1129H510V1131ZM511 1150V1130H509V1150H511ZM490 1151H510V1149H490V1151ZM491 1210V1150H489V1210H491ZM570 1209H490V1211H570V1209ZM569 1150V1210H571V1150H569ZM550 1151H570V1149H550V1151ZM549 1130V1150H551V1130H549Z" fill="#8C8C8C" mask="url(#path-35-inside-5_8_2)"/>
</g>
<rect id="Goats" opacity="0.5" x="490.5" y="1190.5" width="79" height="19" stroke="#8C8C8C"/>
</g>
<g id="House_2">
<g id="House [outline]" style="mix-blend-mode:lighten">
<mask id="path-38-inside-6_8_2" fill="white">
<path fill-rule="evenodd" clip-rule="evenodd" d="M550 1130H510V1150H490V1190H570V1150H550V1130Z"/>
</mask>
<path fill-rule="evenodd" clip-rule="evenodd" d="M550 1130H510V1150H490V1190H570V1150H550V1130Z" fill="black"/>
<path d="M510 1130V1129H509V1130H510ZM550 1130H551V1129H550V1130ZM510 1150V1151H511V1150H510ZM490 1150V1149H489V1150H490ZM490 1190H489V1191H490V1190ZM570 1190V1191H571V1190H570ZM570 1150H571V1149H570V1150ZM550 1150H549V1151H550V1150ZM510 1131H550V1129H510V1131ZM511 1150V1130H509V1150H511ZM490 1151H510V1149H490V1151ZM491 1190V1150H489V1190H491ZM570 1189H490V1191H570V1189ZM569 1150V1190H571V1150H569ZM550 1151H570V1149H550V1151ZM549 1130V1150H551V1130H549Z" fill="black" mask="url(#path-38-inside-6_8_2)"/>
</g>
<g id="Label_11">
<g id="Label_12">
<circle id="Background_6" cx="530" cy="1170" r="8" fill="white" stroke="black"/>
<path id="Number_6" d="M528.203 1173.5L530.493 1168.11L530.933 1167.62L530.333 1167.72H527.763V1166.5H532.273V1166.88L529.473 1173.5H528.203Z" fill="black"/>
</g>
</g>
</g>
<g id="Goats_2">
<g id="Goats [outline]" style="mix-blend-mode:lighten">
<rect x="490.5" y="1190.5" width="79" height="19" fill="black"/>
<rect x="490.5" y="1190.5" width="79" height="19" stroke="black"/>
</g>
<g id="Label_13">
<g id="Label_14">
<circle id="Background_7" cx="530" cy="1200" r="8" fill="white" stroke="black"/>
<path id="Number_7" d="M532.363 1201.33C532.363 1201.66 532.306 1201.96 532.193 1202.24C532.086 1202.52 531.933 1202.76 531.733 1202.97C531.533 1203.18 531.29 1203.34 531.003 1203.46C530.723 1203.58 530.413 1203.64 530.073 1203.64C529.726 1203.64 529.406 1203.59 529.113 1203.48C528.826 1203.37 528.576 1203.2 528.363 1202.98C528.15 1202.76 527.983 1202.48 527.863 1202.15C527.743 1201.82 527.683 1201.43 527.683 1200.99C527.683 1200.33 527.776 1199.73 527.963 1199.2C528.156 1198.67 528.413 1198.2 528.733 1197.81C529.06 1197.41 529.436 1197.09 529.863 1196.85C530.296 1196.6 530.753 1196.44 531.233 1196.36L531.523 1197.39C531.19 1197.44 530.883 1197.55 530.603 1197.7C530.323 1197.85 530.073 1198.04 529.853 1198.25C529.64 1198.46 529.456 1198.7 529.303 1198.97C529.156 1199.23 529.053 1199.5 528.993 1199.78C529.126 1199.61 529.3 1199.47 529.513 1199.36C529.726 1199.24 529.993 1199.18 530.313 1199.18C530.613 1199.18 530.89 1199.23 531.143 1199.32C531.396 1199.41 531.613 1199.55 531.793 1199.74C531.973 1199.92 532.113 1200.14 532.213 1200.41C532.313 1200.68 532.363 1200.98 532.363 1201.33ZM531.103 1201.4C531.103 1200.65 530.736 1200.28 530.003 1200.28C529.736 1200.28 529.51 1200.34 529.323 1200.46C529.143 1200.58 529.016 1200.72 528.943 1200.88C528.93 1200.95 528.923 1201.02 528.923 1201.07C528.923 1201.12 528.923 1201.18 528.923 1201.23C528.923 1201.39 528.946 1201.55 528.993 1201.71C529.04 1201.86 529.106 1202 529.193 1202.13C529.286 1202.25 529.403 1202.35 529.543 1202.43C529.683 1202.5 529.85 1202.54 530.043 1202.54C530.356 1202.54 530.61 1202.43 530.803 1202.22C531.003 1202.01 531.103 1201.73 531.103 1201.4Z" fill="black"/>
</g>
</g>
</g>
<g id="Dogs">
<rect id="Dogs [outline]" x="570.5" y="1150.5" width="39" height="39" fill="#E5DCD5" stroke="#80726A"/>
<g id="Label_15">
<g id="Label_16">
<circle id="Background_8" cx="590" cy="1170" r="8" fill="white" stroke="black"/>
<path id="Number_8" d="M587.773 1171.79C587.773 1171.56 587.803 1171.35 587.863 1171.17C587.923 1170.98 588.006 1170.82 588.113 1170.67C588.226 1170.52 588.356 1170.38 588.503 1170.26C588.656 1170.14 588.82 1170.03 588.993 1169.93C588.666 1169.72 588.41 1169.49 588.223 1169.22C588.036 1168.95 587.943 1168.61 587.943 1168.21C587.943 1167.95 587.99 1167.71 588.083 1167.48C588.183 1167.25 588.323 1167.06 588.503 1166.89C588.69 1166.72 588.913 1166.59 589.173 1166.5C589.433 1166.41 589.726 1166.36 590.053 1166.36C590.353 1166.36 590.626 1166.4 590.873 1166.48C591.12 1166.56 591.33 1166.67 591.503 1166.82C591.683 1166.97 591.82 1167.15 591.913 1167.36C592.013 1167.57 592.063 1167.8 592.063 1168.05C592.063 1168.44 591.973 1168.78 591.793 1169.05C591.62 1169.32 591.363 1169.57 591.023 1169.8C591.423 1170.03 591.723 1170.29 591.923 1170.57C592.13 1170.85 592.233 1171.21 592.233 1171.65C592.233 1171.95 592.176 1172.22 592.063 1172.47C591.956 1172.71 591.803 1172.92 591.603 1173.09C591.403 1173.26 591.163 1173.4 590.883 1173.5C590.603 1173.59 590.296 1173.64 589.963 1173.64C589.63 1173.64 589.326 1173.59 589.053 1173.5C588.786 1173.41 588.556 1173.29 588.363 1173.13C588.176 1172.97 588.03 1172.78 587.923 1172.55C587.823 1172.32 587.773 1172.07 587.773 1171.79ZM590.993 1171.66C590.993 1171.51 590.956 1171.37 590.883 1171.24C590.81 1171.11 590.713 1171 590.593 1170.9C590.48 1170.79 590.35 1170.7 590.203 1170.61C590.063 1170.52 589.92 1170.44 589.773 1170.36C589.46 1170.54 589.243 1170.74 589.123 1170.95C589.01 1171.16 588.953 1171.36 588.953 1171.57C588.953 1171.84 589.043 1172.07 589.223 1172.26C589.41 1172.45 589.666 1172.54 589.993 1172.54C590.293 1172.54 590.533 1172.47 590.713 1172.32C590.9 1172.17 590.993 1171.95 590.993 1171.66ZM589.183 1168.23C589.183 1168.39 589.213 1168.53 589.273 1168.65C589.333 1168.77 589.413 1168.88 589.513 1168.97C589.62 1169.06 589.736 1169.14 589.863 1169.22C589.996 1169.29 590.133 1169.36 590.273 1169.43C590.673 1169.09 590.873 1168.72 590.873 1168.31C590.873 1168.03 590.79 1167.82 590.623 1167.68C590.463 1167.53 590.266 1167.46 590.033 1167.46C589.74 1167.46 589.523 1167.54 589.383 1167.69C589.25 1167.84 589.183 1168.02 589.183 1168.23Z" fill="black"/>
</g>
</g>
</g>
</g>
<g id="Well">
<rect id="Well [outline]" x="350.123" y="1110.7" width="19" height="19" transform="rotate(35 350.123 1110.7)" fill="#D9D9D9" stroke="#8C8C8C"/>
<g id="Label_17">
<g id="Label_18">
<circle id="Background_9" cx="352" cy="1124" r="8" fill="white" stroke="black"/>
<path id="Number_9" d="M349.613 1122.69C349.613 1122.35 349.663 1122.04 349.763 1121.75C349.87 1121.46 350.02 1121.22 350.213 1121.02C350.413 1120.81 350.653 1120.65 350.933 1120.54C351.22 1120.42 351.546 1120.36 351.913 1120.36C352.666 1120.36 353.256 1120.59 353.683 1121.04C354.116 1121.49 354.333 1122.14 354.333 1123C354.333 1123.77 354.233 1124.44 354.033 1125.01C353.84 1125.57 353.576 1126.04 353.243 1126.42C352.916 1126.79 352.536 1127.08 352.103 1127.28C351.67 1127.48 351.213 1127.6 350.733 1127.64L350.453 1126.62C350.82 1126.57 351.146 1126.48 351.433 1126.35C351.72 1126.22 351.966 1126.05 352.173 1125.86C352.38 1125.66 352.546 1125.44 352.673 1125.19C352.806 1124.94 352.9 1124.67 352.953 1124.38C352.793 1124.55 352.62 1124.67 352.433 1124.74C352.253 1124.81 352.01 1124.84 351.703 1124.84C351.45 1124.84 351.196 1124.8 350.943 1124.71C350.696 1124.62 350.473 1124.49 350.273 1124.32C350.08 1124.14 349.92 1123.92 349.793 1123.65C349.673 1123.38 349.613 1123.06 349.613 1122.69ZM350.873 1122.62C350.873 1123 350.98 1123.29 351.193 1123.48C351.406 1123.67 351.673 1123.77 351.993 1123.77C352.266 1123.77 352.49 1123.73 352.663 1123.64C352.836 1123.55 352.97 1123.45 353.063 1123.32C353.083 1123.18 353.093 1123.05 353.093 1122.92C353.093 1122.73 353.07 1122.55 353.023 1122.37C352.976 1122.19 352.903 1122.03 352.803 1121.89C352.71 1121.75 352.586 1121.64 352.433 1121.56C352.286 1121.47 352.11 1121.43 351.903 1121.43C351.576 1121.43 351.323 1121.54 351.143 1121.75C350.963 1121.96 350.873 1122.25 350.873 1122.62Z" fill="black"/>
</g>
</g>
</g>
<g id="The Studio">
<g id="Base_2">
<rect id="The Studio_2" x="466.683" y="1006.46" width="39" height="79" transform="rotate(35 466.683 1006.46)" fill="#D9D9D9" stroke="#8C8C8C"/>
<g id="Critter Cave" opacity="0.5">
<mask id="path-52-inside-7_8_2" fill="white">
<path d="M437.881 1046.72L470.647 1069.66L453.44 1094.24L420.674 1071.29L437.881 1046.72Z"/>
</mask>
<path d="M437.308 1047.54L470.074 1070.48L471.221 1068.84L438.455 1045.9L437.308 1047.54Z" fill="#8C8C8C" mask="url(#path-52-inside-7_8_2)"/>
</g>
</g>
<g id="The Studio_3">
<g id="The Studio [outline]" style="mix-blend-mode:lighten">
<path d="M466.683 1006.46L498.63 1028.83L470.525 1068.97L438.578 1046.6L466.683 1006.46Z" fill="black"/>
<path d="M466.683 1006.46L498.63 1028.83L470.525 1068.97L438.578 1046.6L466.683 1006.46Z" stroke="black"/>
</g>
<g id="Label_19">
<g id="Label_20">
<circle id="Background_10" cx="468.604" cy="1037.71" r="8" fill="white" stroke="black"/>
<path id="Number_10" d="M463.94 1040.11L465.33 1040.11L465.33 1036.16L465.48 1035.48L465 1036.07L464.11 1036.68L463.56 1035.93L465.84 1034.09L466.57 1034.09L466.57 1040.11L467.93 1040.11L467.93 1041.21L463.94 1041.21L463.94 1040.11ZM469.614 1040.11L471.004 1040.11L471.004 1036.16L471.154 1035.48L470.674 1036.07L469.784 1036.68L469.234 1035.93L471.514 1034.09L472.244 1034.09L472.244 1040.11L473.604 1040.11L473.604 1041.21L469.614 1041.21L469.614 1040.11Z" fill="black"/>
</g>
</g>
</g>
<g id="Critter Cave_2">
<g id="Critter Cave [outline]" style="mix-blend-mode:lighten">
<rect x="438.004" y="1047.42" width="39" height="29" transform="rotate(35 438.004 1047.42)" fill="black"/>
<rect x="438.004" y="1047.42" width="39" height="29" transform="rotate(35 438.004 1047.42)" stroke="black"/>
</g>
<g id="Label_21">
<g id="Label_22">
<circle id="Background_11" cx="445.661" cy="1070.48" r="8" fill="white" stroke="black"/>
<path id="Number_11" d="M440.997 1072.88L442.387 1072.88L442.387 1068.93L442.537 1068.25L442.057 1068.84L441.167 1069.45L440.617 1068.7L442.897 1066.86L443.627 1066.86L443.627 1072.88L444.987 1072.88L444.987 1073.98L440.997 1073.98L440.997 1072.88ZM446.061 1070.47C446.061 1069.24 446.271 1068.33 446.691 1067.74C447.111 1067.14 447.714 1066.84 448.501 1066.84C449.341 1066.84 449.957 1067.14 450.351 1067.73C450.744 1068.32 450.941 1069.23 450.941 1070.47C450.941 1071.7 450.727 1072.62 450.301 1073.22C449.881 1073.82 449.277 1074.12 448.491 1074.12C447.657 1074.12 447.044 1073.81 446.651 1073.18C446.257 1072.55 446.061 1071.64 446.061 1070.47ZM447.361 1070.47C447.361 1071.28 447.447 1071.91 447.621 1072.36C447.801 1072.8 448.094 1073.02 448.501 1073.02C448.894 1073.02 449.181 1072.82 449.361 1072.41C449.547 1072 449.641 1071.36 449.641 1070.47C449.641 1069.66 449.554 1069.04 449.381 1068.6C449.207 1068.16 448.911 1067.94 448.491 1067.94C448.091 1067.94 447.801 1068.15 447.621 1068.56C447.447 1068.97 447.361 1069.61 447.361 1070.47Z" fill="black"/>
</g>
</g>
</g>
</g>
<g id="Nutrition House">
<rect id="Nutrition House [outline]" x="560.696" y="1030.12" width="39" height="79" transform="rotate(-35 560.696 1030.12)" fill="#D9D9D9" stroke="#8C8C8C"/>
<g id="Label_23">
<g id="Label_24">
<circle id="Background_12" cx="599" cy="1051" r="8" fill="white" stroke="black"/>
<path id="Number_12" d="M594.336 1053.4L595.726 1053.4L595.726 1049.45L595.876 1048.77L595.396 1049.36L594.506 1049.97L593.956 1049.22L596.236 1047.38L596.966 1047.38L596.966 1053.4L598.326 1053.4L598.326 1054.5L594.336 1054.5L594.336 1053.4ZM603.75 1049.21C603.75 1049.55 603.687 1049.89 603.56 1050.24C603.44 1050.59 603.283 1050.93 603.09 1051.26C602.903 1051.59 602.693 1051.92 602.46 1052.23C602.233 1052.54 602.01 1052.82 601.79 1053.08L601.26 1053.49L601.26 1053.54L601.98 1053.4L603.9 1053.4L603.9 1054.5L599.69 1054.5L599.69 1053.83C599.85 1053.66 600.03 1053.47 600.23 1053.25C600.43 1053.02 600.63 1052.79 600.83 1052.54C601.037 1052.29 601.237 1052.03 601.43 1051.76C601.623 1051.49 601.797 1051.23 601.95 1050.96C602.103 1050.69 602.223 1050.42 602.31 1050.17C602.403 1049.92 602.45 1049.68 602.45 1049.45C602.45 1049.18 602.37 1048.95 602.21 1048.78C602.057 1048.6 601.81 1048.51 601.47 1048.51C601.257 1048.51 601.037 1048.56 600.81 1048.65C600.59 1048.74 600.403 1048.85 600.25 1048.99L599.73 1048.07C599.99 1047.86 600.283 1047.69 600.61 1047.56C600.943 1047.43 601.333 1047.36 601.78 1047.36C602.067 1047.36 602.33 1047.4 602.57 1047.48C602.81 1047.56 603.017 1047.68 603.19 1047.83C603.363 1047.98 603.5 1048.18 603.6 1048.41C603.7 1048.64 603.75 1048.9 603.75 1049.21Z" fill="black"/>
</g>
</g>
</g>
<rect id="Garden" x="505.5" y="1075.5" width="39" height="19" rx="9.5" fill="#E5DCD5" stroke="#80726A"/>
<g id="Barn">
<g id="Barn [outline]">
<mask id="path-64-inside-8_8_2" fill="white">
<path fill-rule="evenodd" clip-rule="evenodd" d="M460 920H360V980H410V1000H450V980H460V920Z"/>
</mask>
<path fill-rule="evenodd" clip-rule="evenodd" d="M460 920H360V980H410V1000H450V980H460V920Z" fill="#D9D9D9"/>
<path d="M360 920V919H359V920H360ZM460 920H461V919H460V920ZM360 980H359V981H360V980ZM410 980H411V979H410V980ZM410 1000H409V1001H410V1000ZM450 1000V1001H451V1000H450ZM450 980V979H449V980H450ZM460 980V981H461V980H460ZM360 921H460V919H360V921ZM361 980V920H359V980H361ZM410 979H360V981H410V979ZM411 1000V980H409V1000H411ZM450 999H410V1001H450V999ZM449 980V1000H451V980H449ZM460 979H450V981H460V979ZM459 920V980H461V920H459Z" fill="#8C8C8C" mask="url(#path-64-inside-8_8_2)"/>
</g>
<g id="Label_25">
<g id="Label_26">
<circle id="Background_13" cx="410" cy="950" r="8" fill="white" stroke="black"/>
<path id="Number_13" d="M405.336 952.4H406.726V948.45L406.876 947.77L406.396 948.36L405.506 948.97L404.956 948.22L407.236 946.38H407.966V952.4H409.326V953.5H405.336V952.4ZM412.41 952.54C412.823 952.54 413.137 952.43 413.35 952.21C413.57 951.99 413.68 951.723 413.68 951.41C413.68 951.03 413.567 950.75 413.34 950.57C413.113 950.39 412.757 950.3 412.27 950.3H411.55V949.61L412.76 947.96L413.33 947.51L412.54 947.6H410.86V946.5H414.68V947.21L413.27 949.1L412.83 949.37V949.42L413.25 949.36C413.483 949.38 413.703 949.433 413.91 949.52C414.123 949.607 414.307 949.733 414.46 949.9C414.62 950.06 414.747 950.26 414.84 950.5C414.933 950.74 414.98 951.017 414.98 951.33C414.98 951.723 414.913 952.063 414.78 952.35C414.653 952.637 414.473 952.877 414.24 953.07C414.013 953.263 413.747 953.407 413.44 953.5C413.133 953.593 412.803 953.64 412.45 953.64C412.157 953.64 411.853 953.613 411.54 953.56C411.227 953.507 410.973 953.43 410.78 953.33L411.13 952.25C411.303 952.337 411.493 952.407 411.7 952.46C411.913 952.513 412.15 952.54 412.41 952.54Z" fill="black"/>
</g>
</g>
</g>
<g id="Crows">
<g id="Crows [outline]">
<mask id="path-68-inside-9_8_2" fill="white">
<path fill-rule="evenodd" clip-rule="evenodd" d="M410 570H330V600H310V620H330L330 650H410V570Z"/>
</mask>
<path fill-rule="evenodd" clip-rule="evenodd" d="M410 570H330V600H310V620H330L330 650H410V570Z" fill="#D9D9D9"/>
<path d="M330 570V569H329V570L330 570ZM410 570H411V569H410V570ZM330 600V601H331V600H330ZM310 600V599H309V600H310ZM310 620H309V621H310V620ZM330 620H331V619H330V620ZM330 650H329V651H330V650ZM410 650V651H411V650H410ZM330 571H410V569H330V571ZM331 600L331 570L329 570L329 600H331ZM310 601H330V599H310V601ZM311 620V600H309V620H311ZM330 619H310V621H330V619ZM331 650L331 620H329L329 650H331ZM410 649H330V651H410V649ZM409 570V650H411V570H409Z" fill="#8C8C8C" mask="url(#path-68-inside-9_8_2)"/>
</g>
<g id="Label_27">
<g id="Label_28">
<circle id="Background_14" cx="370" cy="610" r="8" fill="white" stroke="black"/>
<path id="Number_14" d="M365.336 612.4H366.726V608.45L366.876 607.77L366.396 608.36L365.506 608.97L364.956 608.22L367.236 606.38H367.966V612.4H369.326V613.5H365.336V612.4ZM375.53 611.55H374.43V613.5H373.22V611.55H370.19V610.81L373.36 606.45H374.43V610.51H375.53V611.55ZM373.22 608.98L373.31 608.14H373.27L372.93 608.86L371.89 610.21L371.39 610.59L372.03 610.51H373.22V608.98Z" fill="black"/>
</g>
</g>
</g>
<g id="Orion">
<g id="Orion [outline]">
<mask id="path-72-inside-10_8_2" fill="white">
<path fill-rule="evenodd" clip-rule="evenodd" d="M250 400H170V480H250V450H270V430H250V400Z"/>
</mask>
<path fill-rule="evenodd" clip-rule="evenodd" d="M250 400H170V480H250V450H270V430H250V400Z" fill="#D9D9D9"/>
<path d="M170 400V399H169V400H170ZM250 400H251V399H250V400ZM170 480H169V481H170V480ZM250 480V481H251V480H250ZM250 450V449H249V450H250ZM270 450V451H271V450H270ZM270 430H271V429H270V430ZM250 430H249V431H250V430ZM170 401H250V399H170V401ZM171 480V400H169V480H171ZM250 479H170V481H250V479ZM249 450V480H251V450H249ZM270 449H250V451H270V449ZM269 430V450H271V430H269ZM250 431H270V429H250V431ZM249 400V430H251V400H249Z" fill="#8C8C8C" mask="url(#path-72-inside-10_8_2)"/>
</g>
<g id="Label_29">
<g id="Label_30">
<circle id="Background_15" cx="210" cy="440" r="8" fill="white" stroke="black"/>
<path id="Number_15" d="M205.336 442.4H206.726V438.45L206.876 437.77L206.396 438.36L205.506 438.97L204.956 438.22L207.236 436.38H207.966V442.4H209.326V443.5H205.336V442.4ZM212.2 442.49C212.64 442.49 212.977 442.383 213.21 442.17C213.443 441.957 213.56 441.663 213.56 441.29C213.56 440.89 213.423 440.597 213.15 440.41C212.877 440.223 212.487 440.13 211.98 440.13L211.19 440.16V436.5H214.63V437.72H212.31V439.07L212.72 439.03C213.047 439.043 213.34 439.103 213.6 439.21C213.867 439.317 214.093 439.467 214.28 439.66C214.467 439.847 214.61 440.077 214.71 440.35C214.81 440.617 214.86 440.917 214.86 441.25C214.86 441.643 214.793 441.99 214.66 442.29C214.527 442.59 214.34 442.84 214.1 443.04C213.867 443.24 213.59 443.39 213.27 443.49C212.95 443.59 212.6 443.64 212.22 443.64C211.92 443.64 211.633 443.613 211.36 443.56C211.093 443.513 210.867 443.447 210.68 443.36L211.03 442.28C211.183 442.347 211.35 442.4 211.53 442.44C211.717 442.473 211.94 442.49 212.2 442.49Z" fill="black"/>
</g>
</g>
</g>
<g id="Foxes">
<g id="Foxes [outline]">
<mask id="path-76-inside-11_8_2" fill="white">
<path fill-rule="evenodd" clip-rule="evenodd" d="M200 30H220V50H260V170H200V90H160V50H200V30Z"/>
</mask>
<path fill-rule="evenodd" clip-rule="evenodd" d="M200 30H220V50H260V170H200V90H160V50H200V30Z" fill="#D9D9D9"/>
<path d="M220 30H221V29H220V30ZM200 30V29H199V30H200ZM220 50H219V51H220V50ZM260 50H261V49H260V50ZM260 170V171H261V170H260ZM200 170H199V171H200V170ZM200 90H201V89H200V90ZM160 90H159V91H160V90ZM160 50V49H159V50H160ZM200 50V51H201V50H200ZM220 29H200V31H220V29ZM221 50V30H219V50H221ZM260 49H220V51H260V49ZM261 170V50H259V170H261ZM200 171H260V169H200V171ZM199 90V170H201V90H199ZM200 89H160V91H200V89ZM161 90V50H159V90H161ZM160 51H200V49H160V51ZM199 30V50H201V30H199Z" fill="#8C8C8C" mask="url(#path-76-inside-11_8_2)"/>
</g>
<g id="Label_31">
<g id="Label_32">
<circle id="Background_16" cx="230" cy="110" r="8" fill="white" stroke="black"/>
<path id="Number_16" d="M225.336 112.4H226.726V108.45L226.876 107.77L226.396 108.36L225.506 108.97L224.956 108.22L227.236 106.38H227.966V112.4H229.326V113.5H225.336V112.4ZM235.2 111.33C235.2 111.657 235.143 111.96 235.03 112.24C234.923 112.52 234.77 112.763 234.57 112.97C234.37 113.177 234.127 113.34 233.84 113.46C233.56 113.58 233.25 113.64 232.91 113.64C232.563 113.64 232.243 113.587 231.95 113.48C231.663 113.367 231.413 113.2 231.2 112.98C230.987 112.76 230.82 112.483 230.7 112.15C230.58 111.817 230.52 111.43 230.52 110.99C230.52 110.33 230.613 109.733 230.8 109.2C230.993 108.667 231.25 108.203 231.57 107.81C231.897 107.41 232.273 107.09 232.7 106.85C233.133 106.603 233.59 106.44 234.07 106.36L234.36 107.39C234.027 107.443 233.72 107.547 233.44 107.7C233.16 107.853 232.91 108.037 232.69 108.25C232.477 108.463 232.293 108.703 232.14 108.97C231.993 109.23 231.89 109.5 231.83 109.78C231.963 109.613 232.137 109.473 232.35 109.36C232.563 109.24 232.83 109.18 233.15 109.18C233.45 109.18 233.727 109.227 233.98 109.32C234.233 109.413 234.45 109.553 234.63 109.74C234.81 109.92 234.95 110.143 235.05 110.41C235.15 110.677 235.2 110.983 235.2 111.33ZM233.94 111.4C233.94 110.653 233.573 110.28 232.84 110.28C232.573 110.28 232.347 110.34 232.16 110.46C231.98 110.58 231.853 110.72 231.78 110.88C231.767 110.953 231.76 111.017 231.76 111.07C231.76 111.123 231.76 111.177 231.76 111.23C231.76 111.39 231.783 111.55 231.83 111.71C231.877 111.863 231.943 112.003 232.03 112.13C232.123 112.25 232.24 112.35 232.38 112.43C232.52 112.503 232.687 112.54 232.88 112.54C233.193 112.54 233.447 112.433 233.64 112.22C233.84 112.007 233.94 111.733 233.94 111.4Z" fill="black"/>
</g>
</g>
</g>
</g>
<defs>
<clipPath id="clip0_8_2">
<rect width="650" height="2150" fill="white"/>
</clipPath>
</defs>
</svg>
